<svg xmlns="http://www.w3.org/2000/svg" xmlns:xlink="http://www.w3.org/1999/xlink" contentStyleType="text/css" data-diagram-type="ACTIVITY" height="2405px" preserveAspectRatio="none" style="width:483px;height:2405px;background:#FFFFFF;" version="1.1" viewBox="0 0 483 2405" width="483px" zoomAndPan="magnify"><?plantuml 1.2026.6?><defs/><g><g class="title" data-source-line="1"><text fill="#000000" font-family="sans-serif" font-size="14" font-weight="700" lengthAdjust="spacing" textLength="249.3271" x="116.0591" y="34.5332">&#23487;&#38988;&#25552;&#20986;&#12539;&#12524;&#12499;&#12517;&#12540; &#12450;&#12463;&#12486;&#12451;&#12499;&#12486;&#12451;&#22259;</text></g><ellipse cx="241.5596" cy="63.6094" fill="#222222" rx="10" ry="10" style="stroke:#222222;stroke-width:1;"/><rect fill="none" height="139.7969" style="stroke:#000000;stroke-width:1.5;" width="292" x="95.5596" y="83.6094"/><path d="M133.5596,83.6094 L133.5596,94.2188 L123.5596,104.2188 L95.5596,104.2188" fill="none" style="stroke:#000000;stroke-width:1.5;"/><text fill="#000000" font-family="sans-serif" font-size="14" lengthAdjust="spacing" textLength="28" x="98.5596" y="99.1426">&#20808;&#29983;</text><rect fill="#F1F1F1" height="35.0938" rx="12.5" ry="12.5" style="stroke:#181818;stroke-width:0.5;" width="152" x="165.5596" y="121.2188"/><text fill="#000000" font-family="sans-serif" font-size="12" lengthAdjust="spacing" textLength="132" x="175.5596" y="143.6758">&#23487;&#38988;&#20316;&#25104;&#12501;&#12457;&#12540;&#12512;&#12434;&#38283;&#12367;</text><rect fill="#F1F1F1" height="35.0938" rx="12.5" ry="12.5" style="stroke:#181818;stroke-width:0.5;" width="272" x="105.5596" y="176.3125"/><text fill="#000000" font-family="sans-serif" font-size="12" lengthAdjust="spacing" textLength="252" x="115.5596" y="198.7695">&#29983;&#24466;&#12539;&#12479;&#12452;&#12488;&#12523;&#12539;&#26399;&#38480;&#12539;&#31185;&#30446;&#12539;&#20889;&#30495;&#24517;&#38920;&#12434;&#20837;&#21147;</text><rect fill="none" height="249.9844" style="stroke:#000000;stroke-width:1.5;" width="231.7305" x="125.6943" y="233.4063"/><path d="M191.6943,233.4063 L191.6943,244.0156 L181.6943,254.0156 L125.6943,254.0156" fill="none" style="stroke:#000000;stroke-width:1.5;"/><text fill="#000000" font-family="sans-serif" font-size="14" lengthAdjust="spacing" textLength="56" x="128.6943" y="248.9395">&#12471;&#12473;&#12486;&#12512;</text><rect fill="#F1F1F1" height="35.0938" rx="12.5" ry="12.5" style="stroke:#181818;stroke-width:0.5;" width="104" x="189.5596" y="271.0156"/><text fill="#000000" font-family="sans-serif" font-size="12" lengthAdjust="spacing" textLength="84" x="199.5596" y="293.4727">&#12475;&#12483;&#12471;&#12519;&#12531;&#30906;&#35469;</text><rect fill="#F1F1F1" height="35.0938" rx="12.5" ry="12.5" style="stroke:#181818;stroke-width:0.5;" width="128.0117" x="177.5537" y="326.1094"/><text fill="#000000" font-family="sans-serif" font-size="12" lengthAdjust="spacing" textLength="108.0117" x="187.5537" y="348.5664">Zod &#12496;&#12522;&#12487;&#12540;&#12471;&#12519;&#12531;</text><rect fill="#F1F1F1" height="35.0938" rx="12.5" ry="12.5" style="stroke:#181818;stroke-width:0.5;" width="169.3672" x="156.876" y="381.2031"/><text fill="#000000" font-family="sans-serif" font-size="12" lengthAdjust="spacing" textLength="149.3672" x="166.876" y="403.6602">teacherId &#12391;&#29983;&#24466;&#12398;&#25152;&#26377;&#30906;&#35469;</text><rect fill="#F1F1F1" height="35.0938" rx="12.5" ry="12.5" style="stroke:#181818;stroke-width:0.5;" width="211.7305" x="135.6943" y="436.2969"/><text fill="#000000" font-family="sans-serif" font-size="12" lengthAdjust="spacing" textLength="191.7305" x="145.6943" y="458.7539">Homework(status=assigned) &#12434;&#20316;&#25104;</text><rect fill="none" height="547.793" style="stroke:#000000;stroke-width:1.5;" width="259.3906" x="117.8643" y="493.3906"/><path d="M155.8643,493.3906 L155.8643,504 L145.8643,514 L117.8643,514" fill="none" style="stroke:#000000;stroke-width:1.5;"/><text fill="#000000" font-family="sans-serif" font-size="14" lengthAdjust="spacing" textLength="28" x="120.8643" y="508.9238">&#29983;&#24466;</text><rect fill="#F1F1F1" height="35.0938" rx="12.5" ry="12.5" style="stroke:#181818;stroke-width:0.5;" width="131.334" x="175.8926" y="531"/><text fill="#000000" font-family="sans-serif" font-size="12" lengthAdjust="spacing" textLength="111.334" x="185.8926" y="553.457">&#23487;&#38988;&#19968;&#35239;/&#35443;&#32048;&#12434;&#30906;&#35469;</text><rect fill="#F1F1F1" height="35.0938" rx="12.5" ry="12.5" style="stroke:#181818;stroke-width:0.5;" width="128" x="177.5596" y="586.0938"/><text fill="#000000" font-family="sans-serif" font-size="12" lengthAdjust="spacing" textLength="108" x="187.5596" y="608.5508">&#25552;&#20986;&#12501;&#12457;&#12540;&#12512;&#12434;&#38283;&#12367;</text><rect fill="#F1F1F1" height="35.0938" rx="12.5" ry="12.5" style="stroke:#181818;stroke-width:0.5;" width="80" x="201.5596" y="690.1055"/><text fill="#000000" font-family="sans-serif" font-size="12" lengthAdjust="spacing" textLength="60" x="211.5596" y="712.5625">&#20889;&#30495;&#12434;&#36984;&#25246;</text><rect fill="none" height="139.7969" style="stroke:#000000;stroke-width:1.5;" width="207.3906" x="137.8643" y="735.1992"/><path d="M203.8643,735.1992 L203.8643,745.8086 L193.8643,755.8086 L137.8643,755.8086" fill="none" style="stroke:#000000;stroke-width:1.5;"/><text fill="#000000" font-family="sans-serif" font-size="14" lengthAdjust="spacing" textLength="56" x="140.8643" y="750.7324">&#12502;&#12521;&#12454;&#12470;</text><rect fill="#F1F1F1" height="35.0938" rx="12.5" ry="12.5" style="stroke:#181818;stroke-width:0.5;" width="187.3906" x="147.8643" y="772.8086"/><text fill="#000000" font-family="sans-serif" font-size="12" lengthAdjust="spacing" textLength="167.3906" x="157.8643" y="795.2656">Canvas &#12391;&#26368;&#22823;&#36794;1200px&#12395;&#22311;&#32302;</text><rect fill="#F1F1F1" height="35.0938" rx="12.5" ry="12.5" style="stroke:#181818;stroke-width:0.5;" width="142.6953" x="170.2119" y="827.9023"/><text fill="#000000" font-family="sans-serif" font-size="12" lengthAdjust="spacing" textLength="122.6953" x="180.2119" y="850.3594">JPEG&#21697;&#36074;78%&#12391;File&#21270;</text><polygon fill="#F1F1F1" points="200.0007,641.1875,283.1184,641.1875,295.1184,653.1875,283.1184,665.1875,200.0007,665.1875,188.0007,653.1875,200.0007,641.1875" style="stroke:#181818;stroke-width:0.5;stroke-linejoin:miter;stroke-miterlimit:10;"/><text fill="#000000" font-family="sans-serif" font-size="11" lengthAdjust="spacing" textLength="17.1177" x="245.5596" y="676.6064">yes</text><text fill="#000000" font-family="sans-serif" font-size="11" lengthAdjust="spacing" textLength="83.1177" x="200.0007" y="657.6885">&#20889;&#30495;&#25552;&#20986;&#12364;&#24517;&#38920;?</text><polygon fill="#F1F1F1" points="241.5596,894.9961,253.5596,906.9961,241.5596,918.9961,229.5596,906.9961,241.5596,894.9961" style="stroke:#181818;stroke-width:0.5;stroke-linejoin:miter;stroke-miterlimit:10;"/><rect fill="#F1F1F1" height="35.0938" rx="12.5" ry="12.5" style="stroke:#181818;stroke-width:0.5;" width="143.334" x="169.8926" y="938.9961"/><text fill="#000000" font-family="sans-serif" font-size="12" lengthAdjust="spacing" textLength="123.334" x="179.8926" y="961.4531">&#12467;&#12513;&#12531;&#12488;/&#38627;&#26131;&#24230;&#12434;&#20837;&#21147;</text><rect fill="#F1F1F1" height="35.0938" rx="12.5" ry="12.5" style="stroke:#181818;stroke-width:0.5;" width="68" x="207.5596" y="994.0898"/><text fill="#000000" font-family="sans-serif" font-size="12" lengthAdjust="spacing" textLength="48" x="217.5596" y="1016.5469">&#25552;&#20986;&#12377;&#12427;</text><rect fill="none" height="699.1484" style="stroke:#000000;stroke-width:1.5;" width="258.7441" x="118.1875" y="1051.1836"/><path d="M184.1875,1051.1836 L184.1875,1061.793 L174.1875,1071.793 L118.1875,1071.793" fill="none" style="stroke:#000000;stroke-width:1.5;"/><text fill="#000000" font-family="sans-serif" font-size="14" lengthAdjust="spacing" textLength="56" x="121.1875" y="1066.7168">&#12471;&#12473;&#12486;&#12512;</text><rect fill="#F1F1F1" height="35.0938" rx="12.5" ry="12.5" style="stroke:#181818;stroke-width:0.5;" width="104" x="189.5596" y="1088.793"/><text fill="#000000" font-family="sans-serif" font-size="12" lengthAdjust="spacing" textLength="84" x="199.5596" y="1111.25">&#12475;&#12483;&#12471;&#12519;&#12531;&#30906;&#35469;</text><rect fill="#F1F1F1" height="35.0938" rx="12.5" ry="12.5" style="stroke:#181818;stroke-width:0.5;" width="168.7051" x="157.207" y="1143.8867"/><text fill="#000000" font-family="sans-serif" font-size="12" lengthAdjust="spacing" textLength="148.7051" x="167.207" y="1166.3438">studentId &#12391;&#23487;&#38988;&#12398;&#25152;&#26377;&#30906;&#35469;</text><rect fill="#F1F1F1" height="35.0938" rx="12.5" ry="12.5" style="stroke:#181818;stroke-width:0.5;" width="92" x="195.5596" y="1247.8984"/><text fill="#000000" font-family="sans-serif" font-size="12" lengthAdjust="spacing" textLength="72" x="205.5596" y="1270.3555">&#12456;&#12521;&#12540;&#12434;&#36820;&#12377;</text><ellipse cx="241.5596" cy="1321.9453" fill="none" rx="11" ry="11" style="stroke:#222222;stroke-width:1;"/><ellipse cx="241.5596" cy="1321.9453" fill="#222222" rx="6" ry="6" style="stroke:#222222;stroke-width:1;"/><polygon fill="#F1F1F1" points="189.0007,1198.9805,294.1184,1198.9805,306.1184,1210.9805,294.1184,1222.9805,189.0007,1222.9805,177.0007,1210.9805,189.0007,1198.9805" style="stroke:#181818;stroke-width:0.5;stroke-linejoin:miter;stroke-miterlimit:10;"/><text fill="#000000" font-family="sans-serif" font-size="11" lengthAdjust="spacing" textLength="17.1177" x="245.5596" y="1234.3994">yes</text><text fill="#000000" font-family="sans-serif" font-size="11" lengthAdjust="spacing" textLength="105.1177" x="189.0007" y="1215.4814">&#20889;&#30495;&#24517;&#38920;&#12363;&#12388;&#26410;&#28155;&#20184;?</text><rect fill="#F1F1F1" height="35.0938" rx="12.5" ry="12.5" style="stroke:#181818;stroke-width:0.5;" width="206.7441" x="138.1875" y="1423.8633"/><text fill="#000000" font-family="sans-serif" font-size="12" lengthAdjust="spacing" textLength="186.7441" x="148.1875" y="1446.3203">Supabase Storage &#12395;&#12450;&#12483;&#12503;&#12525;&#12540;&#12489;</text><rect fill="#F1F1F1" height="35.0938" rx="12.5" ry="12.5" style="stroke:#181818;stroke-width:0.5;" width="104.6914" x="189.2139" y="1493.957"/><text fill="#000000" font-family="sans-serif" font-size="12" lengthAdjust="spacing" textLength="84.6914" x="199.2139" y="1516.4141">photoUrl &#12434;&#20445;&#23384;</text><polygon fill="#F1F1F1" points="216.5007,1374.9453,266.6184,1374.9453,278.6184,1386.9453,266.6184,1398.9453,216.5007,1398.9453,204.5007,1386.9453,216.5007,1374.9453" style="stroke:#181818;stroke-width:0.5;stroke-linejoin:miter;stroke-miterlimit:10;"/><text fill="#000000" font-family="sans-serif" font-size="11" lengthAdjust="spacing" textLength="17.1177" x="245.5596" y="1410.3643">yes</text><text fill="#000000" font-family="sans-serif" font-size="11" lengthAdjust="spacing" textLength="50.1177" x="216.5007" y="1391.4463">&#20889;&#30495;&#12354;&#12426;?</text><polygon fill="#F1F1F1" points="241.5596,1549.0508,253.5596,1561.0508,241.5596,1573.0508,229.5596,1561.0508,241.5596,1549.0508" style="stroke:#181818;stroke-width:0.5;stroke-linejoin:miter;stroke-miterlimit:10;"/><rect fill="#F1F1F1" height="35.0938" rx="12.5" ry="12.5" style="stroke:#181818;stroke-width:0.5;" width="187.373" x="147.873" y="1593.0508"/><text fill="#000000" font-family="sans-serif" font-size="12" lengthAdjust="spacing" textLength="167.373" x="157.873" y="1615.5078">Homework &#12434; submitted &#12395;&#26356;&#26032;</text><rect fill="#F1F1F1" height="35.0938" rx="12.5" ry="12.5" style="stroke:#181818;stroke-width:0.5;" width="207.3828" x="137.8682" y="1648.1445"/><text fill="#000000" font-family="sans-serif" font-size="12" lengthAdjust="spacing" textLength="187.3828" x="147.8682" y="1670.6016">HomeworkEvent(submitted) &#12434;&#20316;&#25104;</text><rect fill="#F1F1F1" height="35.0938" rx="12.5" ry="12.5" style="stroke:#181818;stroke-width:0.5;" width="113.3457" x="184.8867" y="1703.2383"/><text fill="#000000" font-family="sans-serif" font-size="12" lengthAdjust="spacing" textLength="93.3457" x="194.8867" y="1725.6953">&#20808;&#29983;&#12395; LINE &#36890;&#30693;</text><rect fill="none" height="203.7969" style="stroke:#000000;stroke-width:1.5;" width="316" x="83.5596" y="1760.332"/><path d="M121.5596,1760.332 L121.5596,1770.9414 L111.5596,1780.9414 L83.5596,1780.9414" fill="none" style="stroke:#000000;stroke-width:1.5;"/><text fill="#000000" font-family="sans-serif" font-size="14" lengthAdjust="spacing" textLength="28" x="86.5596" y="1775.8652">&#20808;&#29983;</text><rect fill="#F1F1F1" height="35.0938" rx="12.5" ry="12.5" style="stroke:#181818;stroke-width:0.5;" width="188" x="147.5596" y="1797.9414"/><text fill="#000000" font-family="sans-serif" font-size="12" lengthAdjust="spacing" textLength="168" x="157.5596" y="1820.3984">&#25552;&#20986;&#20869;&#23481;&#12539;&#20889;&#30495;&#12539;&#38627;&#26131;&#24230;&#12434;&#30906;&#35469;</text><polygon fill="#F1F1F1" points="216.5007,1853.0352,266.6184,1853.0352,278.6184,1865.0352,266.6184,1877.0352,216.5007,1877.0352,204.5007,1865.0352,216.5007,1853.0352" style="stroke:#181818;stroke-width:0.5;stroke-linejoin:miter;stroke-miterlimit:10;"/><text fill="#000000" font-family="sans-serif" font-size="11" lengthAdjust="spacing" textLength="50.1177" x="216.5007" y="1869.5361">&#25215;&#35469;&#12377;&#12427;?</text><text fill="#000000" font-family="sans-serif" font-size="11" lengthAdjust="spacing" textLength="39.7515" x="164.7493" y="1862.6182">approve</text><text fill="#000000" font-family="sans-serif" font-size="11" lengthAdjust="spacing" textLength="26.8984" x="278.6184" y="1862.6182">reject</text><rect fill="#F1F1F1" height="35.0938" rx="12.5" ry="12.5" style="stroke:#181818;stroke-width:0.5;" width="128" x="103.5596" y="1887.0352"/><text fill="#000000" font-family="sans-serif" font-size="12" lengthAdjust="spacing" textLength="108" x="113.5596" y="1909.4922">&#25215;&#35469;&#12467;&#12513;&#12531;&#12488;&#12434;&#20837;&#21147;</text><rect fill="#F1F1F1" height="35.0938" rx="12.5" ry="12.5" style="stroke:#181818;stroke-width:0.5;" width="128" x="251.5596" y="1887.0352"/><text fill="#000000" font-family="sans-serif" font-size="12" lengthAdjust="spacing" textLength="108" x="261.5596" y="1909.4922">&#24046;&#12375;&#25147;&#12375;&#29702;&#30001;&#12434;&#20837;&#21147;</text><polygon fill="#F1F1F1" points="241.5596,1928.1289,253.5596,1940.1289,241.5596,1952.1289,229.5596,1940.1289,241.5596,1928.1289" style="stroke:#181818;stroke-width:0.5;stroke-linejoin:miter;stroke-miterlimit:10;"/><rect fill="none" height="369.0781" style="stroke:#000000;stroke-width:1.5;" width="447.4453" x="16" y="1974.1289"/><path d="M82,1974.1289 L82,1984.7383 L72,1994.7383 L16,1994.7383" fill="none" style="stroke:#000000;stroke-width:1.5;"/><text fill="#000000" font-family="sans-serif" font-size="14" lengthAdjust="spacing" textLength="56" x="19" y="1989.6621">&#12471;&#12473;&#12486;&#12512;</text><polygon fill="#F1F1F1" points="227.5007,2011.7383,255.6184,2011.7383,267.6184,2023.7383,255.6184,2035.7383,227.5007,2035.7383,215.5007,2023.7383,227.5007,2011.7383" style="stroke:#181818;stroke-width:0.5;stroke-linejoin:miter;stroke-miterlimit:10;"/><text fill="#000000" font-family="sans-serif" font-size="11" lengthAdjust="spacing" textLength="28.1177" x="227.5007" y="2028.2393">&#25215;&#35469;?</text><text fill="#000000" font-family="sans-serif" font-size="11" lengthAdjust="spacing" textLength="17.1177" x="198.3831" y="2021.3213">yes</text><text fill="#000000" font-family="sans-serif" font-size="11" lengthAdjust="spacing" textLength="12.2354" x="267.6184" y="2021.3213">no</text><rect fill="#F1F1F1" height="35.0938" rx="12.5" ry="12.5" style="stroke:#181818;stroke-width:0.5;" width="185.3867" x="38.0049" y="2045.7383"/><text fill="#000000" font-family="sans-serif" font-size="12" lengthAdjust="spacing" textLength="165.3867" x="48.0049" y="2068.1953">Homework &#12434; approved &#12395;&#26356;&#26032;</text><rect fill="#F1F1F1" height="35.0938" rx="12.5" ry="12.5" style="stroke:#181818;stroke-width:0.5;" width="205.3965" x="28" y="2100.832"/><text fill="#000000" font-family="sans-serif" font-size="12" lengthAdjust="spacing" textLength="185.3965" x="38" y="2123.2891">HomeworkEvent(approved) &#12434;&#20316;&#25104;</text><rect fill="#F1F1F1" height="35.0938" rx="12.5" ry="12.5" style="stroke:#181818;stroke-width:0.5;" width="122.6973" x="69.3496" y="2155.9258"/><text fill="#000000" font-family="sans-serif" font-size="12" lengthAdjust="spacing" textLength="102.6973" x="79.3496" y="2178.3828">GardenItem &#12434;&#20184;&#19982;</text><rect fill="#F1F1F1" height="35.0938" rx="12.5" ry="12.5" style="stroke:#181818;stroke-width:0.5;" width="104" x="78.6982" y="2211.0195"/><text fill="#000000" font-family="sans-serif" font-size="12" lengthAdjust="spacing" textLength="84" x="88.6982" y="2233.4766">&#29983;&#24466;&#12395;&#25215;&#35469;&#36890;&#30693;</text><rect fill="#F1F1F1" height="35.0938" rx="12.5" ry="12.5" style="stroke:#181818;stroke-width:0.5;" width="178.0391" x="263.4014" y="2045.7383"/><text fill="#000000" font-family="sans-serif" font-size="12" lengthAdjust="spacing" textLength="158.0391" x="273.4014" y="2068.1953">Homework &#12434; rejected &#12395;&#26356;&#26032;</text><rect fill="#F1F1F1" height="35.0938" rx="12.5" ry="12.5" style="stroke:#181818;stroke-width:0.5;" width="198.0488" x="253.3965" y="2100.832"/><text fill="#000000" font-family="sans-serif" font-size="12" lengthAdjust="spacing" textLength="178.0488" x="263.3965" y="2123.2891">HomeworkEvent(rejected) &#12434;&#20316;&#25104;</text><rect fill="#F1F1F1" height="35.0938" rx="12.5" ry="12.5" style="stroke:#181818;stroke-width:0.5;" width="128" x="288.4209" y="2155.9258"/><text fill="#000000" font-family="sans-serif" font-size="12" lengthAdjust="spacing" textLength="108" x="298.4209" y="2178.3828">&#29983;&#24466;&#12395;&#24046;&#12375;&#25147;&#12375;&#36890;&#30693;</text><polygon fill="#F1F1F1" points="241.5596,2252.1133,253.5596,2264.1133,241.5596,2276.1133,229.5596,2264.1133,241.5596,2252.1133" style="stroke:#181818;stroke-width:0.5;stroke-linejoin:miter;stroke-miterlimit:10;"/><rect fill="#F1F1F1" height="35.0938" rx="12.5" ry="12.5" style="stroke:#181818;stroke-width:0.5;" width="184.748" x="149.1855" y="2296.1133"/><text fill="#000000" font-family="sans-serif" font-size="12" lengthAdjust="spacing" textLength="164.748" x="159.1855" y="2318.5703">feedbackSeenAt &#12434; null &#12395;&#12377;&#12427;</text><ellipse cx="241.5596" cy="2374.207" fill="none" rx="11" ry="11" style="stroke:#222222;stroke-width:1;"/><ellipse cx="241.5596" cy="2374.207" fill="#222222" rx="6" ry="6" style="stroke:#222222;stroke-width:1;"/><line style="stroke:#181818;stroke-width:1;" x1="241.5596" x2="241.5596" y1="156.3125" y2="176.3125"/><polygon fill="#181818" points="237.5596,166.3125,241.5596,176.3125,245.5596,166.3125,241.5596,170.3125" style="stroke:#181818;stroke-width:1;stroke-linejoin:miter;stroke-miterlimit:10;"/><line style="stroke:#181818;stroke-width:1;" x1="241.5596" x2="241.5596" y1="73.6094" y2="121.2188"/><polygon fill="#181818" points="237.5596,111.2188,241.5596,121.2188,245.5596,111.2188,241.5596,115.2188" style="stroke:#181818;stroke-width:1;stroke-linejoin:miter;stroke-miterlimit:10;"/><line style="stroke:#181818;stroke-width:1;" x1="241.5596" x2="241.5596" y1="306.1094" y2="326.1094"/><polygon fill="#181818" points="237.5596,316.1094,241.5596,326.1094,245.5596,316.1094,241.5596,320.1094" style="stroke:#181818;stroke-width:1;stroke-linejoin:miter;stroke-miterlimit:10;"/><line style="stroke:#181818;stroke-width:1;" x1="241.5596" x2="241.5596" y1="361.2031" y2="381.2031"/><polygon fill="#181818" points="237.5596,371.2031,241.5596,381.2031,245.5596,371.2031,241.5596,375.2031" style="stroke:#181818;stroke-width:1;stroke-linejoin:miter;stroke-miterlimit:10;"/><line style="stroke:#181818;stroke-width:1;" x1="241.5596" x2="241.5596" y1="416.2969" y2="436.2969"/><polygon fill="#181818" points="237.5596,426.2969,241.5596,436.2969,245.5596,426.2969,241.5596,430.2969" style="stroke:#181818;stroke-width:1;stroke-linejoin:miter;stroke-miterlimit:10;"/><line style="stroke:#181818;stroke-width:1;" x1="241.5596" x2="241.5596" y1="211.4063" y2="271.0156"/><polygon fill="#181818" points="237.5596,261.0156,241.5596,271.0156,245.5596,261.0156,241.5596,265.0156" style="stroke:#181818;stroke-width:1;stroke-linejoin:miter;stroke-miterlimit:10;"/><line style="stroke:#181818;stroke-width:1;" x1="241.5596" x2="241.5596" y1="566.0938" y2="586.0938"/><polygon fill="#181818" points="237.5596,576.0938,241.5596,586.0938,245.5596,576.0938,241.5596,580.0938" style="stroke:#181818;stroke-width:1;stroke-linejoin:miter;stroke-miterlimit:10;"/><line style="stroke:#181818;stroke-width:1;" x1="241.5596" x2="241.5596" y1="807.9023" y2="827.9023"/><polygon fill="#181818" points="237.5596,817.9023,241.5596,827.9023,245.5596,817.9023,241.5596,821.9023" style="stroke:#181818;stroke-width:1;stroke-linejoin:miter;stroke-miterlimit:10;"/><line style="stroke:#181818;stroke-width:1;" x1="241.5596" x2="241.5596" y1="725.1992" y2="772.8086"/><polygon fill="#181818" points="237.5596,762.8086,241.5596,772.8086,245.5596,762.8086,241.5596,766.8086" style="stroke:#181818;stroke-width:1;stroke-linejoin:miter;stroke-miterlimit:10;"/><line style="stroke:#181818;stroke-width:1;" x1="241.5596" x2="241.5596" y1="665.1875" y2="690.1055"/><polygon fill="#181818" points="237.5596,680.1055,241.5596,690.1055,245.5596,680.1055,241.5596,684.1055" style="stroke:#181818;stroke-width:1;stroke-linejoin:miter;stroke-miterlimit:10;"/><line style="stroke:#181818;stroke-width:1;" x1="295.1184" x2="355.2549" y1="653.1875" y2="653.1875"/><polygon fill="#181818" points="351.2549,771.5508,355.2549,781.5508,359.2549,771.5508,355.2549,775.5508" style="stroke:#181818;stroke-width:1;stroke-linejoin:miter;stroke-miterlimit:10;"/><line style="stroke:#181818;stroke-width:1;" x1="355.2549" x2="355.2549" y1="653.1875" y2="906.9961"/><line style="stroke:#181818;stroke-width:1;" x1="355.2549" x2="253.5596" y1="906.9961" y2="906.9961"/><polygon fill="#181818" points="263.5596,902.9961,253.5596,906.9961,263.5596,910.9961,259.5596,906.9961" style="stroke:#181818;stroke-width:1;stroke-linejoin:miter;stroke-miterlimit:10;"/><line style="stroke:#181818;stroke-width:1;" x1="241.5596" x2="241.5596" y1="862.9961" y2="894.9961"/><polygon fill="#181818" points="237.5596,884.9961,241.5596,894.9961,245.5596,884.9961,241.5596,888.9961" style="stroke:#181818;stroke-width:1;stroke-linejoin:miter;stroke-miterlimit:10;"/><line style="stroke:#181818;stroke-width:1;" x1="241.5596" x2="241.5596" y1="621.1875" y2="641.1875"/><polygon fill="#181818" points="237.5596,631.1875,241.5596,641.1875,245.5596,631.1875,241.5596,635.1875" style="stroke:#181818;stroke-width:1;stroke-linejoin:miter;stroke-miterlimit:10;"/><line style="stroke:#181818;stroke-width:1;" x1="241.5596" x2="241.5596" y1="918.9961" y2="938.9961"/><polygon fill="#181818" points="237.5596,928.9961,241.5596,938.9961,245.5596,928.9961,241.5596,932.9961" style="stroke:#181818;stroke-width:1;stroke-linejoin:miter;stroke-miterlimit:10;"/><line style="stroke:#181818;stroke-width:1;" x1="241.5596" x2="241.5596" y1="974.0898" y2="994.0898"/><polygon fill="#181818" points="237.5596,984.0898,241.5596,994.0898,245.5596,984.0898,241.5596,988.0898" style="stroke:#181818;stroke-width:1;stroke-linejoin:miter;stroke-miterlimit:10;"/><line style="stroke:#181818;stroke-width:1;" x1="241.5596" x2="241.5596" y1="471.3906" y2="531"/><polygon fill="#181818" points="237.5596,521,241.5596,531,245.5596,521,241.5596,525" style="stroke:#181818;stroke-width:1;stroke-linejoin:miter;stroke-miterlimit:10;"/><line style="stroke:#181818;stroke-width:1;" x1="241.5596" x2="241.5596" y1="1123.8867" y2="1143.8867"/><polygon fill="#181818" points="237.5596,1133.8867,241.5596,1143.8867,245.5596,1133.8867,241.5596,1137.8867" style="stroke:#181818;stroke-width:1;stroke-linejoin:miter;stroke-miterlimit:10;"/><line style="stroke:#181818;stroke-width:1;" x1="241.5596" x2="241.5596" y1="1282.9922" y2="1310.9453"/><polygon fill="#181818" points="237.5596,1300.9453,241.5596,1310.9453,245.5596,1300.9453,241.5596,1304.9453" style="stroke:#181818;stroke-width:1;stroke-linejoin:miter;stroke-miterlimit:10;"/><line style="stroke:#181818;stroke-width:1;" x1="241.5596" x2="241.5596" y1="1222.9805" y2="1247.8984"/><polygon fill="#181818" points="237.5596,1237.8984,241.5596,1247.8984,245.5596,1237.8984,241.5596,1241.8984" style="stroke:#181818;stroke-width:1;stroke-linejoin:miter;stroke-miterlimit:10;"/><line style="stroke:#181818;stroke-width:1;" x1="306.1184" x2="318.1184" y1="1210.9805" y2="1210.9805"/><polygon fill="#181818" points="314.1184,1280.9453,318.1184,1290.9453,322.1184,1280.9453,318.1184,1284.9453" style="stroke:#181818;stroke-width:1;stroke-linejoin:miter;stroke-miterlimit:10;"/><line style="stroke:#181818;stroke-width:1;" x1="318.1184" x2="318.1184" y1="1210.9805" y2="1354.9453"/><line style="stroke:#181818;stroke-width:1;" x1="318.1184" x2="241.5596" y1="1354.9453" y2="1354.9453"/><line style="stroke:#181818;stroke-width:1;" x1="241.5596" x2="241.5596" y1="1354.9453" y2="1374.9453"/><polygon fill="#181818" points="237.5596,1364.9453,241.5596,1374.9453,245.5596,1364.9453,241.5596,1368.9453" style="stroke:#181818;stroke-width:1;stroke-linejoin:miter;stroke-miterlimit:10;"/><line style="stroke:#181818;stroke-width:1;" x1="241.5596" x2="241.5596" y1="1178.9805" y2="1198.9805"/><polygon fill="#181818" points="237.5596,1188.9805,241.5596,1198.9805,245.5596,1188.9805,241.5596,1192.9805" style="stroke:#181818;stroke-width:1;stroke-linejoin:miter;stroke-miterlimit:10;"/><line style="stroke:#181818;stroke-width:1;" x1="241.5596" x2="241.5596" y1="1458.957" y2="1493.957"/><polygon fill="#181818" points="237.5596,1483.957,241.5596,1493.957,245.5596,1483.957,241.5596,1487.957" style="stroke:#181818;stroke-width:1;stroke-linejoin:miter;stroke-miterlimit:10;"/><line style="stroke:#181818;stroke-width:1;" x1="241.5596" x2="241.5596" y1="1398.9453" y2="1423.8633"/><polygon fill="#181818" points="237.5596,1413.8633,241.5596,1423.8633,245.5596,1413.8633,241.5596,1417.8633" style="stroke:#181818;stroke-width:1;stroke-linejoin:miter;stroke-miterlimit:10;"/><line style="stroke:#181818;stroke-width:1;" x1="278.6184" x2="354.9316" y1="1386.9453" y2="1386.9453"/><polygon fill="#181818" points="350.9316,1466.457,354.9316,1476.457,358.9316,1466.457,354.9316,1470.457" style="stroke:#181818;stroke-width:1;stroke-linejoin:miter;stroke-miterlimit:10;"/><line style="stroke:#181818;stroke-width:1;" x1="354.9316" x2="354.9316" y1="1386.9453" y2="1561.0508"/><line style="stroke:#181818;stroke-width:1;" x1="354.9316" x2="253.5596" y1="1561.0508" y2="1561.0508"/><polygon fill="#181818" points="263.5596,1557.0508,253.5596,1561.0508,263.5596,1565.0508,259.5596,1561.0508" style="stroke:#181818;stroke-width:1;stroke-linejoin:miter;stroke-miterlimit:10;"/><line style="stroke:#181818;stroke-width:1;" x1="241.5596" x2="241.5596" y1="1529.0508" y2="1549.0508"/><polygon fill="#181818" points="237.5596,1539.0508,241.5596,1549.0508,245.5596,1539.0508,241.5596,1543.0508" style="stroke:#181818;stroke-width:1;stroke-linejoin:miter;stroke-miterlimit:10;"/><line style="stroke:#181818;stroke-width:1;" x1="241.5596" x2="241.5596" y1="1573.0508" y2="1593.0508"/><polygon fill="#181818" points="237.5596,1583.0508,241.5596,1593.0508,245.5596,1583.0508,241.5596,1587.0508" style="stroke:#181818;stroke-width:1;stroke-linejoin:miter;stroke-miterlimit:10;"/><line style="stroke:#181818;stroke-width:1;" x1="241.5596" x2="241.5596" y1="1628.1445" y2="1648.1445"/><polygon fill="#181818" points="237.5596,1638.1445,241.5596,1648.1445,245.5596,1638.1445,241.5596,1642.1445" style="stroke:#181818;stroke-width:1;stroke-linejoin:miter;stroke-miterlimit:10;"/><line style="stroke:#181818;stroke-width:1;" x1="241.5596" x2="241.5596" y1="1683.2383" y2="1703.2383"/><polygon fill="#181818" points="237.5596,1693.2383,241.5596,1703.2383,245.5596,1693.2383,241.5596,1697.2383" style="stroke:#181818;stroke-width:1;stroke-linejoin:miter;stroke-miterlimit:10;"/><line style="stroke:#181818;stroke-width:1;" x1="241.5596" x2="241.5596" y1="1029.1836" y2="1088.793"/><polygon fill="#181818" points="237.5596,1078.793,241.5596,1088.793,245.5596,1078.793,241.5596,1082.793" style="stroke:#181818;stroke-width:1;stroke-linejoin:miter;stroke-miterlimit:10;"/><line style="stroke:#181818;stroke-width:1;" x1="204.5007" x2="167.5596" y1="1865.0352" y2="1865.0352"/><line style="stroke:#181818;stroke-width:1;" x1="167.5596" x2="167.5596" y1="1865.0352" y2="1887.0352"/><polygon fill="#181818" points="163.5596,1877.0352,167.5596,1887.0352,171.5596,1877.0352,167.5596,1881.0352" style="stroke:#181818;stroke-width:1;stroke-linejoin:miter;stroke-miterlimit:10;"/><line style="stroke:#181818;stroke-width:1;" x1="278.6184" x2="315.5596" y1="1865.0352" y2="1865.0352"/><line style="stroke:#181818;stroke-width:1;" x1="315.5596" x2="315.5596" y1="1865.0352" y2="1887.0352"/><polygon fill="#181818" points="311.5596,1877.0352,315.5596,1887.0352,319.5596,1877.0352,315.5596,1881.0352" style="stroke:#181818;stroke-width:1;stroke-linejoin:miter;stroke-miterlimit:10;"/><line style="stroke:#181818;stroke-width:1;" x1="167.5596" x2="167.5596" y1="1922.1289" y2="1940.1289"/><line style="stroke:#181818;stroke-width:1;" x1="167.5596" x2="229.5596" y1="1940.1289" y2="1940.1289"/><polygon fill="#181818" points="219.5596,1936.1289,229.5596,1940.1289,219.5596,1944.1289,223.5596,1940.1289" style="stroke:#181818;stroke-width:1;stroke-linejoin:miter;stroke-miterlimit:10;"/><line style="stroke:#181818;stroke-width:1;" x1="315.5596" x2="315.5596" y1="1922.1289" y2="1940.1289"/><line style="stroke:#181818;stroke-width:1;" x1="315.5596" x2="253.5596" y1="1940.1289" y2="1940.1289"/><polygon fill="#181818" points="263.5596,1936.1289,253.5596,1940.1289,263.5596,1944.1289,259.5596,1940.1289" style="stroke:#181818;stroke-width:1;stroke-linejoin:miter;stroke-miterlimit:10;"/><line style="stroke:#181818;stroke-width:1;" x1="241.5596" x2="241.5596" y1="1833.0352" y2="1853.0352"/><polygon fill="#181818" points="237.5596,1843.0352,241.5596,1853.0352,245.5596,1843.0352,241.5596,1847.0352" style="stroke:#181818;stroke-width:1;stroke-linejoin:miter;stroke-miterlimit:10;"/><line style="stroke:#181818;stroke-width:1;" x1="241.5596" x2="241.5596" y1="1738.332" y2="1797.9414"/><polygon fill="#181818" points="237.5596,1787.9414,241.5596,1797.9414,245.5596,1787.9414,241.5596,1791.9414" style="stroke:#181818;stroke-width:1;stroke-linejoin:miter;stroke-miterlimit:10;"/><line style="stroke:#181818;stroke-width:1;" x1="130.6982" x2="130.6982" y1="2080.832" y2="2100.832"/><polygon fill="#181818" points="126.6982,2090.832,130.6982,2100.832,134.6982,2090.832,130.6982,2094.832" style="stroke:#181818;stroke-width:1;stroke-linejoin:miter;stroke-miterlimit:10;"/><line style="stroke:#181818;stroke-width:1;" x1="130.6982" x2="130.6982" y1="2135.9258" y2="2155.9258"/><polygon fill="#181818" points="126.6982,2145.9258,130.6982,2155.9258,134.6982,2145.9258,130.6982,2149.9258" style="stroke:#181818;stroke-width:1;stroke-linejoin:miter;stroke-miterlimit:10;"/><line style="stroke:#181818;stroke-width:1;" x1="130.6982" x2="130.6982" y1="2191.0195" y2="2211.0195"/><polygon fill="#181818" points="126.6982,2201.0195,130.6982,2211.0195,134.6982,2201.0195,130.6982,2205.0195" style="stroke:#181818;stroke-width:1;stroke-linejoin:miter;stroke-miterlimit:10;"/><line style="stroke:#181818;stroke-width:1;" x1="352.4209" x2="352.4209" y1="2080.832" y2="2100.832"/><polygon fill="#181818" points="348.4209,2090.832,352.4209,2100.832,356.4209,2090.832,352.4209,2094.832" style="stroke:#181818;stroke-width:1;stroke-linejoin:miter;stroke-miterlimit:10;"/><line style="stroke:#181818;stroke-width:1;" x1="352.4209" x2="352.4209" y1="2135.9258" y2="2155.9258"/><polygon fill="#181818" points="348.4209,2145.9258,352.4209,2155.9258,356.4209,2145.9258,352.4209,2149.9258" style="stroke:#181818;stroke-width:1;stroke-linejoin:miter;stroke-miterlimit:10;"/><line style="stroke:#181818;stroke-width:1;" x1="215.5007" x2="130.6982" y1="2023.7383" y2="2023.7383"/><line style="stroke:#181818;stroke-width:1;" x1="130.6982" x2="130.6982" y1="2023.7383" y2="2045.7383"/><polygon fill="#181818" points="126.6982,2035.7383,130.6982,2045.7383,134.6982,2035.7383,130.6982,2039.7383" style="stroke:#181818;stroke-width:1;stroke-linejoin:miter;stroke-miterlimit:10;"/><line style="stroke:#181818;stroke-width:1;" x1="267.6184" x2="352.4209" y1="2023.7383" y2="2023.7383"/><line style="stroke:#181818;stroke-width:1;" x1="352.4209" x2="352.4209" y1="2023.7383" y2="2045.7383"/><polygon fill="#181818" points="348.4209,2035.7383,352.4209,2045.7383,356.4209,2035.7383,352.4209,2039.7383" style="stroke:#181818;stroke-width:1;stroke-linejoin:miter;stroke-miterlimit:10;"/><line style="stroke:#181818;stroke-width:1;" x1="130.6982" x2="130.6982" y1="2246.1133" y2="2264.1133"/><line style="stroke:#181818;stroke-width:1;" x1="130.6982" x2="229.5596" y1="2264.1133" y2="2264.1133"/><polygon fill="#181818" points="219.5596,2260.1133,229.5596,2264.1133,219.5596,2268.1133,223.5596,2264.1133" style="stroke:#181818;stroke-width:1;stroke-linejoin:miter;stroke-miterlimit:10;"/><line style="stroke:#181818;stroke-width:1;" x1="352.4209" x2="352.4209" y1="2191.0195" y2="2264.1133"/><line style="stroke:#181818;stroke-width:1;" x1="352.4209" x2="253.5596" y1="2264.1133" y2="2264.1133"/><polygon fill="#181818" points="263.5596,2260.1133,253.5596,2264.1133,263.5596,2268.1133,259.5596,2264.1133" style="stroke:#181818;stroke-width:1;stroke-linejoin:miter;stroke-miterlimit:10;"/><line style="stroke:#181818;stroke-width:1;" x1="241.5596" x2="241.5596" y1="2276.1133" y2="2296.1133"/><polygon fill="#181818" points="237.5596,2286.1133,241.5596,2296.1133,245.5596,2286.1133,241.5596,2290.1133" style="stroke:#181818;stroke-width:1;stroke-linejoin:miter;stroke-miterlimit:10;"/><line style="stroke:#181818;stroke-width:1;" x1="241.5596" x2="241.5596" y1="1952.1289" y2="2011.7383"/><polygon fill="#181818" points="237.5596,2001.7383,241.5596,2011.7383,245.5596,2001.7383,241.5596,2005.7383" style="stroke:#181818;stroke-width:1;stroke-linejoin:miter;stroke-miterlimit:10;"/><line style="stroke:#181818;stroke-width:1;" x1="241.5596" x2="241.5596" y1="2331.207" y2="2363.207"/><polygon fill="#181818" points="237.5596,2353.207,241.5596,2363.207,245.5596,2353.207,241.5596,2357.207" style="stroke:#181818;stroke-width:1;stroke-linejoin:miter;stroke-miterlimit:10;"/><?plantuml-src fLHTJnD157tlhzYGc9GdqHSDZJ7686ACCI6--BRG0LRARjETeiQGT7VIqW8A5Yp5LijtfPMAAP7IAlqnbzbj_uMpN-rkgU71byrsvznxpptdJB60GuYZbMPxPqLRNQEBTI0D8D-1h0Cv0FAR0tKNr1z04g3kcL-D5vgh-cJCHx3F5sPF0GkIo0tGU5BVA0nmxtmSDsprlFoJrv9hG3w1UiIw0Ta6DTtEB8Eo6Z1G34ylqiPCjGdgFf0aa3BxgUKBxIrMrz2B7_LSXRtGn9QUBz1clBsTP3re_80kvGA-1Gy3KCz0FJSuacsR1wXi7s8Sa2AGghvRRvNUcxDVIa4E21jI0h9ea7CmvYb6_EGCYemnZ5AqQIeLBHNJyYbNayVI77ejHMRzJ0uSbU_niYnCYoWuo8HBMzltahIQUMMgnLg7nPkjewf-Ui8ANGCSL_wXe335-IrfRA2oOcbqVv33CqZa_6-HFCY0nYmJPvGhDMtfQy3ywbQFP80SWNe8wY-Bdbdsa1VdUTcGGSl7w7wnTL6_TNjeAFm6b3BD5_LQ9U10dpmV6QNhIgjQkdFt1Yju98GGNSbOvmliYSIWC6NPKWMomyHcbjziv_Qqx3gj7xgCxQwkR86w_5zEopWQH2AslBGKx-DbLqexPGeJUL_BbxIpncKZsqTGKByPWXdHIRUQ6uofjQcCfR1hsMvZK5HGb_fq6e-6-GbUHjmubYByD694oyRDO_kGJI37flCfg_jmU4R2qej8o8nOymizpWRSqZgHD8uvEJen9s2CZDNBMkvKovnuSZiopuJnTr2Us1gHCQyqA-MUZZqRuTgnpthXeDSBpxstJAE9EAsSTwujUt5xxDLSIpNPBylcZZHyE1oHvf4jZmrnPSQJ51HYolaZw1MQn4xMpogWR6h91dlgQmbzuwUtmXJhkaXrsVMnp2EpJRT7vIiwEx0UcHbkb8-mY8vXD6SUDRANjG_saVFdKxQeE1uuQujIFqAM6DSISc1N2NMckfLqpNRIDeLGS8AVd1r7I7o0pTbYD1Go0zozkSQD-0i0?></g></svg>