<svg xmlns="http://www.w3.org/2000/svg" xmlns:xlink="http://www.w3.org/1999/xlink" contentStyleType="text/css" data-diagram-type="CLASS" height="1611px" preserveAspectRatio="none" style="width:2458px;height:1611px;background:#FFFFFF;" version="1.1" viewBox="0 0 2458 1611" width="2458px" zoomAndPan="magnify"><?plantuml 1.2026.6?><defs/><g><g class="title" data-source-line="1"><text fill="#000000" font-family="sans-serif" font-size="14" font-weight="700" lengthAdjust="spacing" textLength="204.2988" x="1123.5435" y="24.5332">katekyo &#20027;&#35201;&#12489;&#12513;&#12452;&#12531; &#12463;&#12521;&#12473;&#22259;</text></g><!--class Role--><g class="entity" data-qualified-name="Role" data-source-line="5" id="ent0001"><rect fill="#F1F1F1" height="92.8281" rx="2.5" ry="2.5" style="stroke:#181818;stroke-width:0.5;" width="60.793" x="21.5" y="98.1094"/><ellipse cx="36.5" cy="114.1094" fill="#EB937F" rx="11" ry="11" style="stroke:#181818;stroke-width:1;"/><path d="M35.3594,114.9063 L35.3594,117.4063 L39.6875,117.4063 L39.6875,116.4844 Q39.6875,115.875 39.9219,115.6094 Q40.1719,115.3438 40.5469,115.3438 Q40.9219,115.3438 41.1563,115.6094 Q41.3906,115.875 41.3906,116.4844 L41.3906,119.1094 L33.3906,119.1094 Q32.7656,119.1094 32.5,118.875 Q32.25,118.6406 32.25,118.25 Q32.25,117.875 32.5156,117.6406 Q32.7813,117.4063 33.3906,117.4063 L33.6563,117.4063 L33.6563,110.75 L33.3906,110.75 Q32.7656,110.75 32.5,110.5156 Q32.25,110.2813 32.25,109.8906 Q32.25,109.5156 32.5,109.2813 Q32.7656,109.0469 33.3906,109.0469 L41.0156,109.0469 L41.0156,111.6406 Q41.0156,112.25 40.7813,112.5156 Q40.5625,112.7656 40.1719,112.7656 Q39.7969,112.7656 39.5625,112.5156 Q39.3281,112.25 39.3281,111.6406 L39.3281,110.75 L35.3594,110.75 L35.3594,113.2031 L36.8438,113.2031 Q36.8438,112.5469 36.9688,112.3594 Q37.2344,111.9531 37.7031,111.9531 Q38.0781,111.9531 38.3125,112.2188 Q38.5469,112.4688 38.5469,113.0781 L38.5469,115.0469 Q38.5469,115.5938 38.4219,115.7813 Q38.1563,116.1719 37.7031,116.1719 Q37.2344,116.1719 36.9688,115.7656 Q36.8438,115.5781 36.8438,114.9063 L35.3594,114.9063 Z " fill="#000000"/><text fill="#000000" font-family="sans-serif" font-size="14" lengthAdjust="spacing" textLength="28.793" x="50.5" y="119.8379">Role</text><line style="stroke:#181818;stroke-width:0.5;" x1="22.5" x2="81.293" y1="130.1094" y2="130.1094"/><text fill="#000000" font-family="sans-serif" font-size="14" lengthAdjust="spacing" textLength="46.6963" x="27.5" y="148.6426">teacher</text><text fill="#000000" font-family="sans-serif" font-size="14" lengthAdjust="spacing" textLength="45.9238" x="27.5" y="166.252">student</text><text fill="#000000" font-family="sans-serif" font-size="14" lengthAdjust="spacing" textLength="39.6963" x="27.5" y="183.8613">parent</text></g><!--class HomeworkStatus--><g class="entity" data-qualified-name="HomeworkStatus" data-source-line="11" id="ent0002"><rect fill="#F1F1F1" height="110.4375" rx="2.5" ry="2.5" style="stroke:#181818;stroke-width:0.5;" width="138.5928" x="117.5" y="89.6094"/><ellipse cx="132.5" cy="105.6094" fill="#EB937F" rx="11" ry="11" style="stroke:#181818;stroke-width:1;"/><path d="M131.3594,106.4063 L131.3594,108.9063 L135.6875,108.9063 L135.6875,107.9844 Q135.6875,107.375 135.9219,107.1094 Q136.1719,106.8438 136.5469,106.8438 Q136.9219,106.8438 137.1563,107.1094 Q137.3906,107.375 137.3906,107.9844 L137.3906,110.6094 L129.3906,110.6094 Q128.7656,110.6094 128.5,110.375 Q128.25,110.1406 128.25,109.75 Q128.25,109.375 128.5156,109.1406 Q128.7813,108.9063 129.3906,108.9063 L129.6563,108.9063 L129.6563,102.25 L129.3906,102.25 Q128.7656,102.25 128.5,102.0156 Q128.25,101.7813 128.25,101.3906 Q128.25,101.0156 128.5,100.7813 Q128.7656,100.5469 129.3906,100.5469 L137.0156,100.5469 L137.0156,103.1406 Q137.0156,103.75 136.7813,104.0156 Q136.5625,104.2656 136.1719,104.2656 Q135.7969,104.2656 135.5625,104.0156 Q135.3281,103.75 135.3281,103.1406 L135.3281,102.25 L131.3594,102.25 L131.3594,104.7031 L132.8438,104.7031 Q132.8438,104.0469 132.9688,103.8594 Q133.2344,103.4531 133.7031,103.4531 Q134.0781,103.4531 134.3125,103.7188 Q134.5469,103.9688 134.5469,104.5781 L134.5469,106.5469 Q134.5469,107.0938 134.4219,107.2813 Q134.1563,107.6719 133.7031,107.6719 Q133.2344,107.6719 132.9688,107.2656 Q132.8438,107.0781 132.8438,106.4063 L131.3594,106.4063 Z " fill="#000000"/><text fill="#000000" font-family="sans-serif" font-size="14" lengthAdjust="spacing" textLength="106.5928" x="146.5" y="111.3379">HomeworkStatus</text><line style="stroke:#181818;stroke-width:0.5;" x1="118.5" x2="255.0928" y1="121.6094" y2="121.6094"/><text fill="#000000" font-family="sans-serif" font-size="14" lengthAdjust="spacing" textLength="56.041" x="123.5" y="140.1426">assigned</text><text fill="#000000" font-family="sans-serif" font-size="14" lengthAdjust="spacing" textLength="60.6963" x="123.5" y="157.752">submitted</text><text fill="#000000" font-family="sans-serif" font-size="14" lengthAdjust="spacing" textLength="58.3789" x="123.5" y="175.3613">approved</text><text fill="#000000" font-family="sans-serif" font-size="14" lengthAdjust="spacing" textLength="49.8066" x="123.5" y="192.9707">rejected</text></g><!--class LessonType--><g class="entity" data-qualified-name="LessonType" data-source-line="18" id="ent0003"><rect fill="#F1F1F1" height="75.2188" rx="2.5" ry="2.5" style="stroke:#181818;stroke-width:0.5;" width="108.2686" x="292" y="107.1094"/><ellipse cx="307" cy="123.1094" fill="#EB937F" rx="11" ry="11" style="stroke:#181818;stroke-width:1;"/><path d="M305.8594,123.9063 L305.8594,126.4063 L310.1875,126.4063 L310.1875,125.4844 Q310.1875,124.875 310.4219,124.6094 Q310.6719,124.3438 311.0469,124.3438 Q311.4219,124.3438 311.6563,124.6094 Q311.8906,124.875 311.8906,125.4844 L311.8906,128.1094 L303.8906,128.1094 Q303.2656,128.1094 303,127.875 Q302.75,127.6406 302.75,127.25 Q302.75,126.875 303.0156,126.6406 Q303.2813,126.4063 303.8906,126.4063 L304.1563,126.4063 L304.1563,119.75 L303.8906,119.75 Q303.2656,119.75 303,119.5156 Q302.75,119.2813 302.75,118.8906 Q302.75,118.5156 303,118.2813 Q303.2656,118.0469 303.8906,118.0469 L311.5156,118.0469 L311.5156,120.6406 Q311.5156,121.25 311.2813,121.5156 Q311.0625,121.7656 310.6719,121.7656 Q310.2969,121.7656 310.0625,121.5156 Q309.8281,121.25 309.8281,120.6406 L309.8281,119.75 L305.8594,119.75 L305.8594,122.2031 L307.3438,122.2031 Q307.3438,121.5469 307.4688,121.3594 Q307.7344,120.9531 308.2031,120.9531 Q308.5781,120.9531 308.8125,121.2188 Q309.0469,121.4688 309.0469,122.0781 L309.0469,124.0469 Q309.0469,124.5938 308.9219,124.7813 Q308.6563,125.1719 308.2031,125.1719 Q307.7344,125.1719 307.4688,124.7656 Q307.3438,124.5781 307.3438,123.9063 L305.8594,123.9063 Z " fill="#000000"/><text fill="#000000" font-family="sans-serif" font-size="14" lengthAdjust="spacing" textLength="76.2686" x="321" y="128.8379">LessonType</text><line style="stroke:#181818;stroke-width:0.5;" x1="293" x2="399.2686" y1="139.1094" y2="139.1094"/><text fill="#000000" font-family="sans-serif" font-size="14" lengthAdjust="spacing" textLength="37.3652" x="298" y="157.6426">online</text><text fill="#000000" font-family="sans-serif" font-size="14" lengthAdjust="spacing" textLength="37.3584" x="298" y="175.252">offline</text></g><!--class TestType--><g class="entity" data-qualified-name="TestType" data-source-line="23" id="ent0004"><rect fill="#F1F1F1" height="110.4375" rx="2.5" ry="2.5" style="stroke:#181818;stroke-width:0.5;" width="90.3516" x="7" y="374.6094"/><ellipse cx="22" cy="390.6094" fill="#EB937F" rx="11" ry="11" style="stroke:#181818;stroke-width:1;"/><path d="M20.8594,391.4063 L20.8594,393.9063 L25.1875,393.9063 L25.1875,392.9844 Q25.1875,392.375 25.4219,392.1094 Q25.6719,391.8438 26.0469,391.8438 Q26.4219,391.8438 26.6563,392.1094 Q26.8906,392.375 26.8906,392.9844 L26.8906,395.6094 L18.8906,395.6094 Q18.2656,395.6094 18,395.375 Q17.75,395.1406 17.75,394.75 Q17.75,394.375 18.0156,394.1406 Q18.2813,393.9063 18.8906,393.9063 L19.1563,393.9063 L19.1563,387.25 L18.8906,387.25 Q18.2656,387.25 18,387.0156 Q17.75,386.7813 17.75,386.3906 Q17.75,386.0156 18,385.7813 Q18.2656,385.5469 18.8906,385.5469 L26.5156,385.5469 L26.5156,388.1406 Q26.5156,388.75 26.2813,389.0156 Q26.0625,389.2656 25.6719,389.2656 Q25.2969,389.2656 25.0625,389.0156 Q24.8281,388.75 24.8281,388.1406 L24.8281,387.25 L20.8594,387.25 L20.8594,389.7031 L22.3438,389.7031 Q22.3438,389.0469 22.4688,388.8594 Q22.7344,388.4531 23.2031,388.4531 Q23.5781,388.4531 23.8125,388.7188 Q24.0469,388.9688 24.0469,389.5781 L24.0469,391.5469 Q24.0469,392.0938 23.9219,392.2813 Q23.6563,392.6719 23.2031,392.6719 Q22.7344,392.6719 22.4688,392.2656 Q22.3438,392.0781 22.3438,391.4063 L20.8594,391.4063 Z " fill="#000000"/><text fill="#000000" font-family="sans-serif" font-size="14" lengthAdjust="spacing" textLength="58.3516" x="36" y="396.3379">TestType</text><line style="stroke:#181818;stroke-width:0.5;" x1="8" x2="96.3516" y1="406.6094" y2="406.6094"/><text fill="#000000" font-family="sans-serif" font-size="14" lengthAdjust="spacing" textLength="33.4482" x="13" y="425.1426">mock</text><text fill="#000000" font-family="sans-serif" font-size="14" lengthAdjust="spacing" textLength="34.2344" x="13" y="442.752">exam</text><text fill="#000000" font-family="sans-serif" font-size="14" lengthAdjust="spacing" textLength="25.6826" x="13" y="460.3613">quiz</text><text fill="#000000" font-family="sans-serif" font-size="14" lengthAdjust="spacing" textLength="31.9102" x="13" y="477.9707">other</text></g><!--class GardenItemType--><g class="entity" data-qualified-name="GardenItemType" data-source-line="30" id="ent0005"><rect fill="#F1F1F1" height="163.2656" rx="2.5" ry="2.5" style="stroke:#181818;stroke-width:0.5;" width="137.0479" x="132.5" y="348.1094"/><ellipse cx="147.5" cy="364.1094" fill="#EB937F" rx="11" ry="11" style="stroke:#181818;stroke-width:1;"/><path d="M146.3594,364.9063 L146.3594,367.4063 L150.6875,367.4063 L150.6875,366.4844 Q150.6875,365.875 150.9219,365.6094 Q151.1719,365.3438 151.5469,365.3438 Q151.9219,365.3438 152.1563,365.6094 Q152.3906,365.875 152.3906,366.4844 L152.3906,369.1094 L144.3906,369.1094 Q143.7656,369.1094 143.5,368.875 Q143.25,368.6406 143.25,368.25 Q143.25,367.875 143.5156,367.6406 Q143.7813,367.4063 144.3906,367.4063 L144.6563,367.4063 L144.6563,360.75 L144.3906,360.75 Q143.7656,360.75 143.5,360.5156 Q143.25,360.2813 143.25,359.8906 Q143.25,359.5156 143.5,359.2813 Q143.7656,359.0469 144.3906,359.0469 L152.0156,359.0469 L152.0156,361.6406 Q152.0156,362.25 151.7813,362.5156 Q151.5625,362.7656 151.1719,362.7656 Q150.7969,362.7656 150.5625,362.5156 Q150.3281,362.25 150.3281,361.6406 L150.3281,360.75 L146.3594,360.75 L146.3594,363.2031 L147.8438,363.2031 Q147.8438,362.5469 147.9688,362.3594 Q148.2344,361.9531 148.7031,361.9531 Q149.0781,361.9531 149.3125,362.2188 Q149.5469,362.4688 149.5469,363.0781 L149.5469,365.0469 Q149.5469,365.5938 149.4219,365.7813 Q149.1563,366.1719 148.7031,366.1719 Q148.2344,366.1719 147.9688,365.7656 Q147.8438,365.5781 147.8438,364.9063 L146.3594,364.9063 Z " fill="#000000"/><text fill="#000000" font-family="sans-serif" font-size="14" lengthAdjust="spacing" textLength="105.0479" x="161.5" y="369.8379">GardenItemType</text><line style="stroke:#181818;stroke-width:0.5;" x1="133.5" x2="268.5479" y1="380.1094" y2="380.1094"/><text fill="#000000" font-family="sans-serif" font-size="14" lengthAdjust="spacing" textLength="24.124" x="138.5" y="398.6426">tree</text><text fill="#000000" font-family="sans-serif" font-size="14" lengthAdjust="spacing" textLength="30.3584" x="138.5" y="416.252">bush</text><text fill="#000000" font-family="sans-serif" font-size="14" lengthAdjust="spacing" textLength="37.3447" x="138.5" y="433.8613">flower</text><text fill="#000000" font-family="sans-serif" font-size="14" lengthAdjust="spacing" textLength="38.8965" x="138.5" y="451.4707">cherry</text><text fill="#000000" font-family="sans-serif" font-size="14" lengthAdjust="spacing" textLength="50.5928" x="138.5" y="469.0801">big_tree</text><text fill="#000000" font-family="sans-serif" font-size="14" lengthAdjust="spacing" textLength="50.5928" x="138.5" y="486.6895">bamboo</text><text fill="#000000" font-family="sans-serif" font-size="14" lengthAdjust="spacing" textLength="66.1309" x="138.5" y="504.2988">mushroom</text></g><!--class HomeworkEventType--><g class="entity" data-qualified-name="HomeworkEventType" data-source-line="40" id="ent0006"><rect fill="#F1F1F1" height="92.8281" rx="2.5" ry="2.5" style="stroke:#181818;stroke-width:0.5;" width="165.8271" x="305" y="383.1094"/><ellipse cx="320" cy="399.1094" fill="#EB937F" rx="11" ry="11" style="stroke:#181818;stroke-width:1;"/><path d="M318.8594,399.9063 L318.8594,402.4063 L323.1875,402.4063 L323.1875,401.4844 Q323.1875,400.875 323.4219,400.6094 Q323.6719,400.3438 324.0469,400.3438 Q324.4219,400.3438 324.6563,400.6094 Q324.8906,400.875 324.8906,401.4844 L324.8906,404.1094 L316.8906,404.1094 Q316.2656,404.1094 316,403.875 Q315.75,403.6406 315.75,403.25 Q315.75,402.875 316.0156,402.6406 Q316.2813,402.4063 316.8906,402.4063 L317.1563,402.4063 L317.1563,395.75 L316.8906,395.75 Q316.2656,395.75 316,395.5156 Q315.75,395.2813 315.75,394.8906 Q315.75,394.5156 316,394.2813 Q316.2656,394.0469 316.8906,394.0469 L324.5156,394.0469 L324.5156,396.6406 Q324.5156,397.25 324.2813,397.5156 Q324.0625,397.7656 323.6719,397.7656 Q323.2969,397.7656 323.0625,397.5156 Q322.8281,397.25 322.8281,396.6406 L322.8281,395.75 L318.8594,395.75 L318.8594,398.2031 L320.3438,398.2031 Q320.3438,397.5469 320.4688,397.3594 Q320.7344,396.9531 321.2031,396.9531 Q321.5781,396.9531 321.8125,397.2188 Q322.0469,397.4688 322.0469,398.0781 L322.0469,400.0469 Q322.0469,400.5938 321.9219,400.7813 Q321.6563,401.1719 321.2031,401.1719 Q320.7344,401.1719 320.4688,400.7656 Q320.3438,400.5781 320.3438,399.9063 L318.8594,399.9063 Z " fill="#000000"/><text fill="#000000" font-family="sans-serif" font-size="14" lengthAdjust="spacing" textLength="133.8271" x="334" y="404.8379">HomeworkEventType</text><line style="stroke:#181818;stroke-width:0.5;" x1="306" x2="469.8271" y1="415.1094" y2="415.1094"/><text fill="#000000" font-family="sans-serif" font-size="14" lengthAdjust="spacing" textLength="60.6963" x="311" y="433.6426">submitted</text><text fill="#000000" font-family="sans-serif" font-size="14" lengthAdjust="spacing" textLength="58.3789" x="311" y="451.252">approved</text><text fill="#000000" font-family="sans-serif" font-size="14" lengthAdjust="spacing" textLength="49.8066" x="311" y="468.8613">rejected</text></g><!--class User--><g class="entity" data-qualified-name="User" data-source-line="46" id="ent0007"><rect fill="#F1F1F1" height="198.4844" rx="2.5" ry="2.5" style="stroke:#181818;stroke-width:0.5;" width="201.0684" x="1390.5" y="45.6094"/><ellipse cx="1472.0049" cy="61.6094" fill="#ADD1B2" rx="11" ry="11" style="stroke:#181818;stroke-width:1;"/><path d="M1474.7705,57.4844 Q1474.9268,57.2656 1475.1143,57.1563 Q1475.3018,57.0469 1475.5205,57.0469 Q1475.8955,57.0469 1476.1299,57.3125 Q1476.3643,57.5625 1476.3643,58.1719 L1476.3643,59.625 Q1476.3643,60.2344 1476.1299,60.5 Q1475.8955,60.7656 1475.5205,60.7656 Q1475.1768,60.7656 1474.9736,60.5625 Q1474.7705,60.375 1474.6611,59.8594 Q1474.6143,59.5 1474.4268,59.3125 Q1474.0986,58.9375 1473.4893,58.7188 Q1472.8799,58.5 1472.2549,58.5 Q1471.4893,58.5 1470.8486,58.8281 Q1470.2236,59.1563 1469.7236,59.9063 Q1469.2393,60.6563 1469.2393,61.6875 L1469.2393,62.7813 Q1469.2393,64.0156 1470.1299,64.8438 Q1471.0205,65.6563 1472.6143,65.6563 Q1473.5518,65.6563 1474.208,65.4063 Q1474.5986,65.25 1475.0205,64.8125 Q1475.2861,64.5469 1475.4268,64.4688 Q1475.583,64.3906 1475.7861,64.3906 Q1476.1143,64.3906 1476.3643,64.6563 Q1476.6299,64.9063 1476.6299,65.25 Q1476.6299,65.5938 1476.2861,66 Q1475.7861,66.5781 1474.9893,66.9063 Q1473.9111,67.3594 1472.6143,67.3594 Q1471.0986,67.3594 1469.8955,66.7344 Q1468.9111,66.2344 1468.2236,65.1719 Q1467.5361,64.0938 1467.5361,62.8125 L1467.5361,61.6563 Q1467.5361,60.3281 1468.1455,59.1875 Q1468.7705,58.0313 1469.8643,57.4219 Q1470.958,56.7969 1472.1924,56.7969 Q1472.9268,56.7969 1473.5674,56.9688 Q1474.2236,57.125 1474.7705,57.4844 Z " fill="#000000"/><text fill="#000000" font-family="sans-serif" font-size="14" lengthAdjust="spacing" textLength="29.5586" x="1492.5049" y="67.3379">User</text><line style="stroke:#181818;stroke-width:0.5;" x1="1391.5" x2="1590.5684" y1="77.6094" y2="77.6094"/><text fill="#000000" font-family="sans-serif" font-size="14" lengthAdjust="spacing" textLength="55.248" x="1396.5" y="96.1426">id: String</text><text fill="#000000" font-family="sans-serif" font-size="14" lengthAdjust="spacing" textLength="77.8066" x="1396.5" y="113.752">email: String</text><text fill="#000000" font-family="sans-serif" font-size="14" lengthAdjust="spacing" textLength="79.3721" x="1396.5" y="131.3613">name: String</text><text fill="#000000" font-family="sans-serif" font-size="14" lengthAdjust="spacing" textLength="59.917" x="1396.5" y="148.9707">role: Role</text><text fill="#000000" font-family="sans-serif" font-size="14" lengthAdjust="spacing" textLength="104.2686" x="1396.5" y="166.5801">password: String</text><text fill="#000000" font-family="sans-serif" font-size="14" lengthAdjust="spacing" textLength="115.165" x="1396.5" y="184.1895">lineUserId: String?</text><text fill="#000000" font-family="sans-serif" font-size="14" lengthAdjust="spacing" textLength="108.9443" x="1396.5" y="201.7988">meetLink: String?</text><text fill="#000000" font-family="sans-serif" font-size="14" lengthAdjust="spacing" textLength="189.0684" x="1396.5" y="219.4082">agreedToTermsAt: DateTime?</text><text fill="#000000" font-family="sans-serif" font-size="14" lengthAdjust="spacing" textLength="128.3857" x="1396.5" y="237.0176">createdAt: DateTime</text></g><!--class Student--><g class="entity" data-qualified-name="Student" data-source-line="58" id="ent0008"><rect fill="#F1F1F1" height="216.0938" rx="2.5" ry="2.5" style="stroke:#181818;stroke-width:0.5;" width="178.5439" x="918.5" y="321.6094"/><ellipse cx="979.3911" cy="337.6094" fill="#ADD1B2" rx="11" ry="11" style="stroke:#181818;stroke-width:1;"/><path d="M982.1567,333.4844 Q982.313,333.2656 982.5005,333.1563 Q982.688,333.0469 982.9067,333.0469 Q983.2817,333.0469 983.5161,333.3125 Q983.7505,333.5625 983.7505,334.1719 L983.7505,335.625 Q983.7505,336.2344 983.5161,336.5 Q983.2817,336.7656 982.9067,336.7656 Q982.563,336.7656 982.3599,336.5625 Q982.1567,336.375 982.0474,335.8594 Q982.0005,335.5 981.813,335.3125 Q981.4849,334.9375 980.8755,334.7188 Q980.2661,334.5 979.6411,334.5 Q978.8755,334.5 978.2349,334.8281 Q977.6099,335.1563 977.1099,335.9063 Q976.6255,336.6563 976.6255,337.6875 L976.6255,338.7813 Q976.6255,340.0156 977.5161,340.8438 Q978.4067,341.6563 980.0005,341.6563 Q980.938,341.6563 981.5942,341.4063 Q981.9849,341.25 982.4067,340.8125 Q982.6724,340.5469 982.813,340.4688 Q982.9692,340.3906 983.1724,340.3906 Q983.5005,340.3906 983.7505,340.6563 Q984.0161,340.9063 984.0161,341.25 Q984.0161,341.5938 983.6724,342 Q983.1724,342.5781 982.3755,342.9063 Q981.2974,343.3594 980.0005,343.3594 Q978.4849,343.3594 977.2817,342.7344 Q976.2974,342.2344 975.6099,341.1719 Q974.9224,340.0938 974.9224,338.8125 L974.9224,337.6563 Q974.9224,336.3281 975.5317,335.1875 Q976.1567,334.0313 977.2505,333.4219 Q978.3442,332.7969 979.5786,332.7969 Q980.313,332.7969 980.9536,332.9688 Q981.6099,333.125 982.1567,333.4844 Z " fill="#000000"/><text fill="#000000" font-family="sans-serif" font-size="14" lengthAdjust="spacing" textLength="48.2617" x="999.8911" y="343.3379">Student</text><line style="stroke:#181818;stroke-width:0.5;" x1="919.5" x2="1096.0439" y1="353.6094" y2="353.6094"/><text fill="#000000" font-family="sans-serif" font-size="14" lengthAdjust="spacing" textLength="55.248" x="924.5" y="372.1426">id: String</text><text fill="#000000" font-family="sans-serif" font-size="14" lengthAdjust="spacing" textLength="83.2617" x="924.5" y="389.752">userId: String</text><text fill="#000000" font-family="sans-serif" font-size="14" lengthAdjust="spacing" textLength="102.7236" x="924.5" y="407.3613">teacherId: String</text><text fill="#000000" font-family="sans-serif" font-size="14" lengthAdjust="spacing" textLength="80.1582" x="924.5" y="424.9707">grade: String</text><text fill="#000000" font-family="sans-serif" font-size="14" lengthAdjust="spacing" textLength="136.2061" x="924.5" y="442.5801">gardenGeneration: Int</text><text fill="#000000" font-family="sans-serif" font-size="14" lengthAdjust="spacing" textLength="143.1924" x="924.5" y="460.1895">defaultHourlyRate: Int?</text><text fill="#000000" font-family="sans-serif" font-size="14" lengthAdjust="spacing" textLength="166.5439" x="924.5" y="477.7988">defaultTravelExpense: Int?</text><text fill="#000000" font-family="sans-serif" font-size="14" lengthAdjust="spacing" textLength="148.6406" x="924.5" y="495.4082">defaultDurationMin: Int?</text><text fill="#000000" font-family="sans-serif" font-size="14" lengthAdjust="spacing" textLength="159.5371" x="924.5" y="513.0176">defaultSubjectIds: String[]</text><text fill="#000000" font-family="sans-serif" font-size="14" lengthAdjust="spacing" textLength="128.3857" x="924.5" y="530.627">createdAt: DateTime</text></g><!--class Homework--><g class="entity" data-qualified-name="Homework" data-source-line="71" id="ent0009"><rect fill="#F1F1F1" height="356.9688" rx="2.5" ry="2.5" style="stroke:#181818;stroke-width:0.5;" width="190.9922" x="1098.5" y="1032.6094"/><ellipse cx="1156.2944" cy="1048.6094" fill="#ADD1B2" rx="11" ry="11" style="stroke:#181818;stroke-width:1;"/><path d="M1159.0601,1044.4844 Q1159.2163,1044.2656 1159.4038,1044.1563 Q1159.5913,1044.0469 1159.8101,1044.0469 Q1160.1851,1044.0469 1160.4194,1044.3125 Q1160.6538,1044.5625 1160.6538,1045.1719 L1160.6538,1046.625 Q1160.6538,1047.2344 1160.4194,1047.5 Q1160.1851,1047.7656 1159.8101,1047.7656 Q1159.4663,1047.7656 1159.2632,1047.5625 Q1159.0601,1047.375 1158.9507,1046.8594 Q1158.9038,1046.5 1158.7163,1046.3125 Q1158.3882,1045.9375 1157.7788,1045.7188 Q1157.1694,1045.5 1156.5444,1045.5 Q1155.7788,1045.5 1155.1382,1045.8281 Q1154.5132,1046.1563 1154.0132,1046.9063 Q1153.5288,1047.6563 1153.5288,1048.6875 L1153.5288,1049.7813 Q1153.5288,1051.0156 1154.4194,1051.8438 Q1155.3101,1052.6563 1156.9038,1052.6563 Q1157.8413,1052.6563 1158.4976,1052.4063 Q1158.8882,1052.25 1159.3101,1051.8125 Q1159.5757,1051.5469 1159.7163,1051.4688 Q1159.8726,1051.3906 1160.0757,1051.3906 Q1160.4038,1051.3906 1160.6538,1051.6563 Q1160.9194,1051.9063 1160.9194,1052.25 Q1160.9194,1052.5938 1160.5757,1053 Q1160.0757,1053.5781 1159.2788,1053.9063 Q1158.2007,1054.3594 1156.9038,1054.3594 Q1155.3882,1054.3594 1154.1851,1053.7344 Q1153.2007,1053.2344 1152.5132,1052.1719 Q1151.8257,1051.0938 1151.8257,1049.8125 L1151.8257,1048.6563 Q1151.8257,1047.3281 1152.4351,1046.1875 Q1153.0601,1045.0313 1154.1538,1044.4219 Q1155.2476,1043.7969 1156.4819,1043.7969 Q1157.2163,1043.7969 1157.8569,1043.9688 Q1158.5132,1044.125 1159.0601,1044.4844 Z " fill="#000000"/><text fill="#000000" font-family="sans-serif" font-size="14" lengthAdjust="spacing" textLength="66.9033" x="1176.7944" y="1054.3379">Homework</text><line style="stroke:#181818;stroke-width:0.5;" x1="1099.5" x2="1288.4922" y1="1064.6094" y2="1064.6094"/><text fill="#000000" font-family="sans-serif" font-size="14" lengthAdjust="spacing" textLength="55.248" x="1104.5" y="1083.1426">id: String</text><text fill="#000000" font-family="sans-serif" font-size="14" lengthAdjust="spacing" textLength="102.7236" x="1104.5" y="1100.752">teacherId: String</text><text fill="#000000" font-family="sans-serif" font-size="14" lengthAdjust="spacing" textLength="101.9512" x="1104.5" y="1118.3613">studentId: String</text><text fill="#000000" font-family="sans-serif" font-size="14" lengthAdjust="spacing" textLength="66.1377" x="1104.5" y="1135.9707">title: String</text><text fill="#000000" font-family="sans-serif" font-size="14" lengthAdjust="spacing" textLength="119.8408" x="1104.5" y="1153.5801">description: String?</text><text fill="#000000" font-family="sans-serif" font-size="14" lengthAdjust="spacing" textLength="121.3926" x="1104.5" y="1171.1895">dueDate: DateTime</text><text fill="#000000" font-family="sans-serif" font-size="14" lengthAdjust="spacing" textLength="115.165" x="1104.5" y="1188.7988">subjectIds: String[]</text><text fill="#000000" font-family="sans-serif" font-size="14" lengthAdjust="spacing" textLength="113.6064" x="1104.5" y="1206.4082">materialId: String?</text><text fill="#000000" font-family="sans-serif" font-size="14" lengthAdjust="spacing" textLength="151.7236" x="1104.5" y="1224.0176">status: HomeworkStatus</text><text fill="#000000" font-family="sans-serif" font-size="14" lengthAdjust="spacing" textLength="127.6338" x="1104.5" y="1241.627">studentNote: String?</text><text fill="#000000" font-family="sans-serif" font-size="14" lengthAdjust="spacing" textLength="122.1719" x="1104.5" y="1259.2363">difficultyRating: Int?</text><text fill="#000000" font-family="sans-serif" font-size="14" lengthAdjust="spacing" textLength="160.3164" x="1104.5" y="1276.8457">teacherFeedback: String?</text><text fill="#000000" font-family="sans-serif" font-size="14" lengthAdjust="spacing" textLength="146.3232" x="1104.5" y="1294.4551">requiresPhoto: Boolean</text><text fill="#000000" font-family="sans-serif" font-size="14" lengthAdjust="spacing" textLength="105.0547" x="1104.5" y="1312.0645">photoUrl: String?</text><text fill="#000000" font-family="sans-serif" font-size="14" lengthAdjust="spacing" textLength="150.1719" x="1104.5" y="1329.6738">submittedAt: DateTime?</text><text fill="#000000" font-family="sans-serif" font-size="14" lengthAdjust="spacing" textLength="145.5029" x="1104.5" y="1347.2832">reviewedAt: DateTime?</text><text fill="#000000" font-family="sans-serif" font-size="14" lengthAdjust="spacing" textLength="178.9922" x="1104.5" y="1364.8926">feedbackSeenAt: DateTime?</text><text fill="#000000" font-family="sans-serif" font-size="14" lengthAdjust="spacing" textLength="128.3857" x="1104.5" y="1382.502">createdAt: DateTime</text></g><!--class HomeworkEvent--><g class="entity" data-qualified-name="HomeworkEvent" data-source-line="92" id="ent0010"><rect fill="#F1F1F1" height="145.6563" rx="2.5" ry="2.5" style="stroke:#181818;stroke-width:0.5;" width="218.9785" x="1084.5" y="1450.6094"/><ellipse cx="1138.3877" cy="1466.6094" fill="#ADD1B2" rx="11" ry="11" style="stroke:#181818;stroke-width:1;"/><path d="M1141.1533,1462.4844 Q1141.3096,1462.2656 1141.4971,1462.1563 Q1141.6846,1462.0469 1141.9033,1462.0469 Q1142.2783,1462.0469 1142.5127,1462.3125 Q1142.7471,1462.5625 1142.7471,1463.1719 L1142.7471,1464.625 Q1142.7471,1465.2344 1142.5127,1465.5 Q1142.2783,1465.7656 1141.9033,1465.7656 Q1141.5596,1465.7656 1141.3564,1465.5625 Q1141.1533,1465.375 1141.0439,1464.8594 Q1140.9971,1464.5 1140.8096,1464.3125 Q1140.4814,1463.9375 1139.8721,1463.7188 Q1139.2627,1463.5 1138.6377,1463.5 Q1137.8721,1463.5 1137.2314,1463.8281 Q1136.6064,1464.1563 1136.1064,1464.9063 Q1135.6221,1465.6563 1135.6221,1466.6875 L1135.6221,1467.7813 Q1135.6221,1469.0156 1136.5127,1469.8438 Q1137.4033,1470.6563 1138.9971,1470.6563 Q1139.9346,1470.6563 1140.5908,1470.4063 Q1140.9814,1470.25 1141.4033,1469.8125 Q1141.6689,1469.5469 1141.8096,1469.4688 Q1141.9658,1469.3906 1142.1689,1469.3906 Q1142.4971,1469.3906 1142.7471,1469.6563 Q1143.0127,1469.9063 1143.0127,1470.25 Q1143.0127,1470.5938 1142.6689,1471 Q1142.1689,1471.5781 1141.3721,1471.9063 Q1140.2939,1472.3594 1138.9971,1472.3594 Q1137.4814,1472.3594 1136.2783,1471.7344 Q1135.2939,1471.2344 1134.6064,1470.1719 Q1133.9189,1469.0938 1133.9189,1467.8125 L1133.9189,1466.6563 Q1133.9189,1465.3281 1134.5283,1464.1875 Q1135.1533,1463.0313 1136.2471,1462.4219 Q1137.3408,1461.7969 1138.5752,1461.7969 Q1139.3096,1461.7969 1139.9502,1461.9688 Q1140.6064,1462.125 1141.1533,1462.4844 Z " fill="#000000"/><text fill="#000000" font-family="sans-serif" font-size="14" lengthAdjust="spacing" textLength="102.7031" x="1158.8877" y="1472.3379">HomeworkEvent</text><line style="stroke:#181818;stroke-width:0.5;" x1="1085.5" x2="1302.4785" y1="1482.6094" y2="1482.6094"/><text fill="#000000" font-family="sans-serif" font-size="14" lengthAdjust="spacing" textLength="55.248" x="1090.5" y="1501.1426">id: String</text><text fill="#000000" font-family="sans-serif" font-size="14" lengthAdjust="spacing" textLength="120.6064" x="1090.5" y="1518.752">homeworkId: String</text><text fill="#000000" font-family="sans-serif" font-size="14" lengthAdjust="spacing" textLength="206.9785" x="1090.5" y="1536.3613">eventType: HomeworkEventType</text><text fill="#000000" font-family="sans-serif" font-size="14" lengthAdjust="spacing" textLength="112.8203" x="1090.5" y="1553.9707">actorName: String</text><text fill="#000000" font-family="sans-serif" font-size="14" lengthAdjust="spacing" textLength="79.3857" x="1090.5" y="1571.5801">note: String?</text><text fill="#000000" font-family="sans-serif" font-size="14" lengthAdjust="spacing" textLength="128.3857" x="1090.5" y="1589.1895">createdAt: DateTime</text></g><!--class Lesson--><g class="entity" data-qualified-name="Lesson" data-source-line="101" id="ent0011"><rect fill="#F1F1F1" height="339.3594" rx="2.5" ry="2.5" style="stroke:#181818;stroke-width:0.5;" width="197.999" x="1685" y="615.6094"/><ellipse cx="1757.1772" cy="631.6094" fill="#ADD1B2" rx="11" ry="11" style="stroke:#181818;stroke-width:1;"/><path d="M1759.9429,627.4844 Q1760.0991,627.2656 1760.2866,627.1563 Q1760.4741,627.0469 1760.6929,627.0469 Q1761.0679,627.0469 1761.3022,627.3125 Q1761.5366,627.5625 1761.5366,628.1719 L1761.5366,629.625 Q1761.5366,630.2344 1761.3022,630.5 Q1761.0679,630.7656 1760.6929,630.7656 Q1760.3491,630.7656 1760.146,630.5625 Q1759.9429,630.375 1759.8335,629.8594 Q1759.7866,629.5 1759.5991,629.3125 Q1759.271,628.9375 1758.6616,628.7188 Q1758.0522,628.5 1757.4272,628.5 Q1756.6616,628.5 1756.021,628.8281 Q1755.396,629.1563 1754.896,629.9063 Q1754.4116,630.6563 1754.4116,631.6875 L1754.4116,632.7813 Q1754.4116,634.0156 1755.3022,634.8438 Q1756.1929,635.6563 1757.7866,635.6563 Q1758.7241,635.6563 1759.3804,635.4063 Q1759.771,635.25 1760.1929,634.8125 Q1760.4585,634.5469 1760.5991,634.4688 Q1760.7554,634.3906 1760.9585,634.3906 Q1761.2866,634.3906 1761.5366,634.6563 Q1761.8022,634.9063 1761.8022,635.25 Q1761.8022,635.5938 1761.4585,636 Q1760.9585,636.5781 1760.1616,636.9063 Q1759.0835,637.3594 1757.7866,637.3594 Q1756.271,637.3594 1755.0679,636.7344 Q1754.0835,636.2344 1753.396,635.1719 Q1752.7085,634.0938 1752.7085,632.8125 L1752.7085,631.6563 Q1752.7085,630.3281 1753.3179,629.1875 Q1753.9429,628.0313 1755.0366,627.4219 Q1756.1304,626.7969 1757.3647,626.7969 Q1758.0991,626.7969 1758.7397,626.9688 Q1759.396,627.125 1759.9429,627.4844 Z " fill="#000000"/><text fill="#000000" font-family="sans-serif" font-size="14" lengthAdjust="spacing" textLength="45.1445" x="1777.6772" y="637.3379">Lesson</text><line style="stroke:#181818;stroke-width:0.5;" x1="1686" x2="1881.999" y1="647.6094" y2="647.6094"/><text fill="#000000" font-family="sans-serif" font-size="14" lengthAdjust="spacing" textLength="55.248" x="1691" y="666.1426">id: String</text><text fill="#000000" font-family="sans-serif" font-size="14" lengthAdjust="spacing" textLength="102.7236" x="1691" y="683.752">teacherId: String</text><text fill="#000000" font-family="sans-serif" font-size="14" lengthAdjust="spacing" textLength="101.9512" x="1691" y="701.3613">studentId: String</text><text fill="#000000" font-family="sans-serif" font-size="14" lengthAdjust="spacing" textLength="95.71" x="1691" y="718.9707">date: DateTime</text><text fill="#000000" font-family="sans-serif" font-size="14" lengthAdjust="spacing" textLength="104.2822" x="1691" y="736.5801">durationMin: Int?</text><text fill="#000000" font-family="sans-serif" font-size="14" lengthAdjust="spacing" textLength="110.5098" x="1691" y="754.1895">type: LessonType</text><text fill="#000000" font-family="sans-serif" font-size="14" lengthAdjust="spacing" textLength="86.3857" x="1691" y="771.7988">notes: String?</text><text fill="#000000" font-family="sans-serif" font-size="14" lengthAdjust="spacing" textLength="115.9648" x="1691" y="789.4082">lessonLog: String?</text><text fill="#000000" font-family="sans-serif" font-size="14" lengthAdjust="spacing" textLength="161.1162" x="1691" y="807.0176">lessonLogPublic: Boolean</text><text fill="#000000" font-family="sans-serif" font-size="14" lengthAdjust="spacing" textLength="185.999" x="1691" y="824.627">lessonLogSeenAt: DateTime?</text><text fill="#000000" font-family="sans-serif" font-size="14" lengthAdjust="spacing" textLength="115.165" x="1691" y="842.2363">subjectIds: String[]</text><text fill="#000000" font-family="sans-serif" font-size="14" lengthAdjust="spacing" textLength="98.834" x="1691" y="859.8457">hourlyRate: Int?</text><text fill="#000000" font-family="sans-serif" font-size="14" lengthAdjust="spacing" textLength="119.8477" x="1691" y="877.4551">travelExpense: Int?</text><text fill="#000000" font-family="sans-serif" font-size="14" lengthAdjust="spacing" textLength="154.0684" x="1691" y="895.0645">completedAt: DateTime?</text><text fill="#000000" font-family="sans-serif" font-size="14" lengthAdjust="spacing" textLength="161.8682" x="1691" y="912.6738">qstashMessageId: String?</text><text fill="#000000" font-family="sans-serif" font-size="14" lengthAdjust="spacing" textLength="173.5166" x="1691" y="930.2832">reminderSentAt: DateTime?</text><text fill="#000000" font-family="sans-serif" font-size="14" lengthAdjust="spacing" textLength="128.3857" x="1691" y="947.8926">createdAt: DateTime</text></g><!--class GradeRecord--><g class="entity" data-qualified-name="GradeRecord" data-source-line="121" id="ent0012"><rect fill="#F1F1F1" height="304.1406" rx="2.5" ry="2.5" style="stroke:#181818;stroke-width:0.5;" width="140.3857" x="1510" y="633.1094"/><ellipse cx="1535.9551" cy="649.1094" fill="#ADD1B2" rx="11" ry="11" style="stroke:#181818;stroke-width:1;"/><path d="M1538.7208,644.9844 Q1538.877,644.7656 1539.0645,644.6563 Q1539.252,644.5469 1539.4708,644.5469 Q1539.8458,644.5469 1540.0801,644.8125 Q1540.3145,645.0625 1540.3145,645.6719 L1540.3145,647.125 Q1540.3145,647.7344 1540.0801,648 Q1539.8458,648.2656 1539.4708,648.2656 Q1539.127,648.2656 1538.9239,648.0625 Q1538.7208,647.875 1538.6114,647.3594 Q1538.5645,647 1538.377,646.8125 Q1538.0489,646.4375 1537.4395,646.2188 Q1536.8301,646 1536.2051,646 Q1535.4395,646 1534.7989,646.3281 Q1534.1739,646.6563 1533.6739,647.4063 Q1533.1895,648.1563 1533.1895,649.1875 L1533.1895,650.2813 Q1533.1895,651.5156 1534.0801,652.3438 Q1534.9708,653.1563 1536.5645,653.1563 Q1537.502,653.1563 1538.1583,652.9063 Q1538.5489,652.75 1538.9708,652.3125 Q1539.2364,652.0469 1539.377,651.9688 Q1539.5333,651.8906 1539.7364,651.8906 Q1540.0645,651.8906 1540.3145,652.1563 Q1540.5801,652.4063 1540.5801,652.75 Q1540.5801,653.0938 1540.2364,653.5 Q1539.7364,654.0781 1538.9395,654.4063 Q1537.8614,654.8594 1536.5645,654.8594 Q1535.0489,654.8594 1533.8458,654.2344 Q1532.8614,653.7344 1532.1739,652.6719 Q1531.4864,651.5938 1531.4864,650.3125 L1531.4864,649.1563 Q1531.4864,647.8281 1532.0958,646.6875 Q1532.7208,645.5313 1533.8145,644.9219 Q1534.9083,644.2969 1536.1426,644.2969 Q1536.877,644.2969 1537.5176,644.4688 Q1538.1739,644.625 1538.7208,644.9844 Z " fill="#000000"/><text fill="#000000" font-family="sans-serif" font-size="14" lengthAdjust="spacing" textLength="84.041" x="1552.3896" y="654.8379">GradeRecord</text><line style="stroke:#181818;stroke-width:0.5;" x1="1511" x2="1649.3857" y1="665.1094" y2="665.1094"/><text fill="#000000" font-family="sans-serif" font-size="14" lengthAdjust="spacing" textLength="55.248" x="1516" y="683.6426">id: String</text><text fill="#000000" font-family="sans-serif" font-size="14" lengthAdjust="spacing" textLength="102.7236" x="1516" y="701.252">teacherId: String</text><text fill="#000000" font-family="sans-serif" font-size="14" lengthAdjust="spacing" textLength="101.9512" x="1516" y="718.8613">studentId: String</text><text fill="#000000" font-family="sans-serif" font-size="14" lengthAdjust="spacing" textLength="104.2617" x="1516" y="736.4707">testName: String</text><text fill="#000000" font-family="sans-serif" font-size="14" lengthAdjust="spacing" textLength="119.8203" x="1516" y="754.0801">testType: TestType</text><text fill="#000000" font-family="sans-serif" font-size="14" lengthAdjust="spacing" textLength="95.71" x="1516" y="771.6895">date: DateTime</text><text fill="#000000" font-family="sans-serif" font-size="14" lengthAdjust="spacing" textLength="115.165" x="1516" y="789.2988">subjectIds: String[]</text><text fill="#000000" font-family="sans-serif" font-size="14" lengthAdjust="spacing" textLength="65.3652" x="1516" y="806.9082">score: Int?</text><text fill="#000000" font-family="sans-serif" font-size="14" lengthAdjust="spacing" textLength="94.1514" x="1516" y="824.5176">maxScore: Int?</text><text fill="#000000" font-family="sans-serif" font-size="14" lengthAdjust="spacing" textLength="58.3652" x="1516" y="842.127">rank: Int?</text><text fill="#000000" font-family="sans-serif" font-size="14" lengthAdjust="spacing" textLength="112.8545" x="1516" y="859.7363">totalStudents: Int?</text><text fill="#000000" font-family="sans-serif" font-size="14" lengthAdjust="spacing" textLength="102.7305" x="1516" y="877.3457">deviation: Float?</text><text fill="#000000" font-family="sans-serif" font-size="14" lengthAdjust="spacing" textLength="90.2754" x="1516" y="894.9551">avgScore: Int?</text><text fill="#000000" font-family="sans-serif" font-size="14" lengthAdjust="spacing" textLength="109.71" x="1516" y="912.5645">comment: String?</text><text fill="#000000" font-family="sans-serif" font-size="14" lengthAdjust="spacing" textLength="128.3857" x="1516" y="930.1738">createdAt: DateTime</text></g><!--class ExamEvent--><g class="entity" data-qualified-name="ExamEvent" data-source-line="139" id="ent0013"><rect fill="#F1F1F1" height="180.875" rx="2.5" ry="2.5" style="stroke:#181818;stroke-width:0.5;" width="141.1787" x="441.5" y="694.6094"/><ellipse cx="473.4167" cy="710.6094" fill="#ADD1B2" rx="11" ry="11" style="stroke:#181818;stroke-width:1;"/><path d="M476.1824,706.4844 Q476.3386,706.2656 476.5261,706.1563 Q476.7136,706.0469 476.9324,706.0469 Q477.3074,706.0469 477.5417,706.3125 Q477.7761,706.5625 477.7761,707.1719 L477.7761,708.625 Q477.7761,709.2344 477.5417,709.5 Q477.3074,709.7656 476.9324,709.7656 Q476.5886,709.7656 476.3855,709.5625 Q476.1824,709.375 476.073,708.8594 Q476.0261,708.5 475.8386,708.3125 Q475.5105,707.9375 474.9011,707.7188 Q474.2917,707.5 473.6667,707.5 Q472.9011,707.5 472.2605,707.8281 Q471.6355,708.1563 471.1355,708.9063 Q470.6511,709.6563 470.6511,710.6875 L470.6511,711.7813 Q470.6511,713.0156 471.5417,713.8438 Q472.4324,714.6563 474.0261,714.6563 Q474.9636,714.6563 475.6199,714.4063 Q476.0105,714.25 476.4324,713.8125 Q476.698,713.5469 476.8386,713.4688 Q476.9949,713.3906 477.198,713.3906 Q477.5261,713.3906 477.7761,713.6563 Q478.0417,713.9063 478.0417,714.25 Q478.0417,714.5938 477.698,715 Q477.198,715.5781 476.4011,715.9063 Q475.323,716.3594 474.0261,716.3594 Q472.5105,716.3594 471.3074,715.7344 Q470.323,715.2344 469.6355,714.1719 Q468.948,713.0938 468.948,711.8125 L468.948,710.6563 Q468.948,709.3281 469.5574,708.1875 Q470.1824,707.0313 471.2761,706.4219 Q472.3699,705.7969 473.6042,705.7969 Q474.3386,705.7969 474.9792,705.9688 Q475.6355,706.125 476.1824,706.4844 Z " fill="#000000"/><text fill="#000000" font-family="sans-serif" font-size="14" lengthAdjust="spacing" textLength="71.5859" x="491.176" y="716.3379">ExamEvent</text><line style="stroke:#181818;stroke-width:0.5;" x1="442.5" x2="581.6787" y1="726.6094" y2="726.6094"/><text fill="#000000" font-family="sans-serif" font-size="14" lengthAdjust="spacing" textLength="55.248" x="447.5" y="745.1426">id: String</text><text fill="#000000" font-family="sans-serif" font-size="14" lengthAdjust="spacing" textLength="102.7236" x="447.5" y="762.752">teacherId: String</text><text fill="#000000" font-family="sans-serif" font-size="14" lengthAdjust="spacing" textLength="101.9512" x="447.5" y="780.3613">studentId: String</text><text fill="#000000" font-family="sans-serif" font-size="14" lengthAdjust="spacing" textLength="79.3721" x="447.5" y="797.9707">name: String</text><text fill="#000000" font-family="sans-serif" font-size="14" lengthAdjust="spacing" textLength="119.8203" x="447.5" y="815.5801">testType: TestType</text><text fill="#000000" font-family="sans-serif" font-size="14" lengthAdjust="spacing" textLength="95.71" x="447.5" y="833.1895">date: DateTime</text><text fill="#000000" font-family="sans-serif" font-size="14" lengthAdjust="spacing" textLength="129.1787" x="447.5" y="850.7988">endDate: DateTime?</text><text fill="#000000" font-family="sans-serif" font-size="14" lengthAdjust="spacing" textLength="128.3857" x="447.5" y="868.4082">createdAt: DateTime</text></g><!--class GardenItem--><g class="entity" data-qualified-name="GardenItem" data-source-line="150" id="ent0014"><rect fill="#F1F1F1" height="145.6563" rx="2.5" ry="2.5" style="stroke:#181818;stroke-width:0.5;" width="182.3994" x="618" y="712.1094"/><ellipse cx="667.9878" cy="728.1094" fill="#ADD1B2" rx="11" ry="11" style="stroke:#181818;stroke-width:1;"/><path d="M670.7534,723.9844 Q670.9097,723.7656 671.0972,723.6563 Q671.2847,723.5469 671.5034,723.5469 Q671.8784,723.5469 672.1128,723.8125 Q672.3472,724.0625 672.3472,724.6719 L672.3472,726.125 Q672.3472,726.7344 672.1128,727 Q671.8784,727.2656 671.5034,727.2656 Q671.1597,727.2656 670.9565,727.0625 Q670.7534,726.875 670.644,726.3594 Q670.5972,726 670.4097,725.8125 Q670.0815,725.4375 669.4722,725.2188 Q668.8628,725 668.2378,725 Q667.4722,725 666.8315,725.3281 Q666.2065,725.6563 665.7065,726.4063 Q665.2222,727.1563 665.2222,728.1875 L665.2222,729.2813 Q665.2222,730.5156 666.1128,731.3438 Q667.0034,732.1563 668.5972,732.1563 Q669.5347,732.1563 670.1909,731.9063 Q670.5815,731.75 671.0034,731.3125 Q671.269,731.0469 671.4097,730.9688 Q671.5659,730.8906 671.769,730.8906 Q672.0972,730.8906 672.3472,731.1563 Q672.6128,731.4063 672.6128,731.75 Q672.6128,732.0938 672.269,732.5 Q671.769,733.0781 670.9722,733.4063 Q669.894,733.8594 668.5972,733.8594 Q667.0815,733.8594 665.8784,733.2344 Q664.894,732.7344 664.2065,731.6719 Q663.519,730.5938 663.519,729.3125 L663.519,728.1563 Q663.519,726.8281 664.1284,725.6875 Q664.7534,724.5313 665.8472,723.9219 Q666.9409,723.2969 668.1753,723.2969 Q668.9097,723.2969 669.5503,723.4688 Q670.2065,723.625 670.7534,723.9844 Z " fill="#000000"/><text fill="#000000" font-family="sans-serif" font-size="14" lengthAdjust="spacing" textLength="73.9238" x="688.4878" y="733.8379">GardenItem</text><line style="stroke:#181818;stroke-width:0.5;" x1="619" x2="799.3994" y1="744.1094" y2="744.1094"/><text fill="#000000" font-family="sans-serif" font-size="14" lengthAdjust="spacing" textLength="55.248" x="624" y="762.6426">id: String</text><text fill="#000000" font-family="sans-serif" font-size="14" lengthAdjust="spacing" textLength="101.9512" x="624" y="780.252">studentId: String</text><text fill="#000000" font-family="sans-serif" font-size="14" lengthAdjust="spacing" textLength="170.3994" x="624" y="797.8613">itemType: GardenItemType</text><text fill="#000000" font-family="sans-serif" font-size="14" lengthAdjust="spacing" textLength="30.3447" x="624" y="815.4707">x: Int</text><text fill="#000000" font-family="sans-serif" font-size="14" lengthAdjust="spacing" textLength="30.3447" x="624" y="833.0801">y: Int</text><text fill="#000000" font-family="sans-serif" font-size="14" lengthAdjust="spacing" textLength="128.3857" x="624" y="850.6895">createdAt: DateTime</text></g><!--class StudentMaterial--><g class="entity" data-qualified-name="StudentMaterial" data-source-line="159" id="ent0015"><rect fill="#F1F1F1" height="163.2656" rx="2.5" ry="2.5" style="stroke:#181818;stroke-width:0.5;" width="140.3857" x="1335" y="703.6094"/><ellipse cx="1354.649" cy="719.6094" fill="#ADD1B2" rx="11" ry="11" style="stroke:#181818;stroke-width:1;"/><path d="M1357.4146,715.4844 Q1357.5708,715.2656 1357.7583,715.1563 Q1357.9458,715.0469 1358.1646,715.0469 Q1358.5396,715.0469 1358.774,715.3125 Q1359.0083,715.5625 1359.0083,716.1719 L1359.0083,717.625 Q1359.0083,718.2344 1358.774,718.5 Q1358.5396,718.7656 1358.1646,718.7656 Q1357.8208,718.7656 1357.6177,718.5625 Q1357.4146,718.375 1357.3052,717.8594 Q1357.2583,717.5 1357.0708,717.3125 Q1356.7427,716.9375 1356.1333,716.7188 Q1355.524,716.5 1354.899,716.5 Q1354.1333,716.5 1353.4927,716.8281 Q1352.8677,717.1563 1352.3677,717.9063 Q1351.8833,718.6563 1351.8833,719.6875 L1351.8833,720.7813 Q1351.8833,722.0156 1352.774,722.8438 Q1353.6646,723.6563 1355.2583,723.6563 Q1356.1958,723.6563 1356.8521,723.4063 Q1357.2427,723.25 1357.6646,722.8125 Q1357.9302,722.5469 1358.0708,722.4688 Q1358.2271,722.3906 1358.4302,722.3906 Q1358.7583,722.3906 1359.0083,722.6563 Q1359.274,722.9063 1359.274,723.25 Q1359.274,723.5938 1358.9302,724 Q1358.4302,724.5781 1357.6333,724.9063 Q1356.5552,725.3594 1355.2583,725.3594 Q1353.7427,725.3594 1352.5396,724.7344 Q1351.5552,724.2344 1350.8677,723.1719 Q1350.1802,722.0938 1350.1802,720.8125 L1350.1802,719.6563 Q1350.1802,718.3281 1350.7896,717.1875 Q1351.4146,716.0313 1352.5083,715.4219 Q1353.6021,714.7969 1354.8365,714.7969 Q1355.5708,714.7969 1356.2115,714.9688 Q1356.8677,715.125 1357.4146,715.4844 Z " fill="#000000"/><text fill="#000000" font-family="sans-serif" font-size="14" lengthAdjust="spacing" textLength="98.0547" x="1369.6821" y="725.3379">StudentMaterial</text><line style="stroke:#181818;stroke-width:0.5;" x1="1336" x2="1474.3857" y1="735.6094" y2="735.6094"/><text fill="#000000" font-family="sans-serif" font-size="14" lengthAdjust="spacing" textLength="55.248" x="1341" y="754.1426">id: String</text><text fill="#000000" font-family="sans-serif" font-size="14" lengthAdjust="spacing" textLength="102.7236" x="1341" y="771.752">teacherId: String</text><text fill="#000000" font-family="sans-serif" font-size="14" lengthAdjust="spacing" textLength="101.9512" x="1341" y="789.3613">studentId: String</text><text fill="#000000" font-family="sans-serif" font-size="14" lengthAdjust="spacing" textLength="79.3721" x="1341" y="806.9707">name: String</text><text fill="#000000" font-family="sans-serif" font-size="14" lengthAdjust="spacing" textLength="79.3857" x="1341" y="824.5801">note: String?</text><text fill="#000000" font-family="sans-serif" font-size="14" lengthAdjust="spacing" textLength="115.165" x="1341" y="842.1895">subjectIds: String[]</text><text fill="#000000" font-family="sans-serif" font-size="14" lengthAdjust="spacing" textLength="128.3857" x="1341" y="859.7988">createdAt: DateTime</text></g><!--class Subject--><g class="entity" data-qualified-name="Subject" data-source-line="169" id="ent0016"><rect fill="#F1F1F1" height="128.0469" rx="2.5" ry="2.5" style="stroke:#181818;stroke-width:0.5;" width="140.3857" x="1883" y="365.6094"/><ellipse cx="1925.7603" cy="381.6094" fill="#ADD1B2" rx="11" ry="11" style="stroke:#181818;stroke-width:1;"/><path d="M1928.5259,377.4844 Q1928.6821,377.2656 1928.8696,377.1563 Q1929.0571,377.0469 1929.2759,377.0469 Q1929.6509,377.0469 1929.8853,377.3125 Q1930.1196,377.5625 1930.1196,378.1719 L1930.1196,379.625 Q1930.1196,380.2344 1929.8853,380.5 Q1929.6509,380.7656 1929.2759,380.7656 Q1928.9321,380.7656 1928.729,380.5625 Q1928.5259,380.375 1928.4165,379.8594 Q1928.3696,379.5 1928.1821,379.3125 Q1927.854,378.9375 1927.2446,378.7188 Q1926.6353,378.5 1926.0103,378.5 Q1925.2446,378.5 1924.604,378.8281 Q1923.979,379.1563 1923.479,379.9063 Q1922.9946,380.6563 1922.9946,381.6875 L1922.9946,382.7813 Q1922.9946,384.0156 1923.8853,384.8438 Q1924.7759,385.6563 1926.3696,385.6563 Q1927.3071,385.6563 1927.9634,385.4063 Q1928.354,385.25 1928.7759,384.8125 Q1929.0415,384.5469 1929.1821,384.4688 Q1929.3384,384.3906 1929.5415,384.3906 Q1929.8696,384.3906 1930.1196,384.6563 Q1930.3853,384.9063 1930.3853,385.25 Q1930.3853,385.5938 1930.0415,386 Q1929.5415,386.5781 1928.7446,386.9063 Q1927.6665,387.3594 1926.3696,387.3594 Q1924.854,387.3594 1923.6509,386.7344 Q1922.6665,386.2344 1921.979,385.1719 Q1921.2915,384.0938 1921.2915,382.8125 L1921.2915,381.6563 Q1921.2915,380.3281 1921.9009,379.1875 Q1922.5259,378.0313 1923.6196,377.4219 Q1924.7134,376.7969 1925.9478,376.7969 Q1926.6821,376.7969 1927.3228,376.9688 Q1927.979,377.125 1928.5259,377.4844 Z " fill="#000000"/><text fill="#000000" font-family="sans-serif" font-size="14" lengthAdjust="spacing" textLength="46.6963" x="1945.9292" y="387.3379">Subject</text><line style="stroke:#181818;stroke-width:0.5;" x1="1884" x2="2022.3857" y1="397.6094" y2="397.6094"/><text fill="#000000" font-family="sans-serif" font-size="14" lengthAdjust="spacing" textLength="55.248" x="1889" y="416.1426">id: String</text><text fill="#000000" font-family="sans-serif" font-size="14" lengthAdjust="spacing" textLength="102.7236" x="1889" y="433.752">teacherId: String</text><text fill="#000000" font-family="sans-serif" font-size="14" lengthAdjust="spacing" textLength="79.3721" x="1889" y="451.3613">name: String</text><text fill="#000000" font-family="sans-serif" font-size="14" lengthAdjust="spacing" textLength="82.4824" x="1889" y="468.9707">color: String?</text><text fill="#000000" font-family="sans-serif" font-size="14" lengthAdjust="spacing" textLength="128.3857" x="1889" y="486.5801">createdAt: DateTime</text></g><!--class InviteToken--><g class="entity" data-qualified-name="InviteToken" data-source-line="177" id="ent0017"><rect fill="#F1F1F1" height="198.4844" rx="2.5" ry="2.5" style="stroke:#181818;stroke-width:0.5;" width="140.3857" x="1708" y="330.6094"/><ellipse cx="1739.2062" cy="346.6094" fill="#ADD1B2" rx="11" ry="11" style="stroke:#181818;stroke-width:1;"/><path d="M1741.9718,342.4844 Q1742.128,342.2656 1742.3155,342.1563 Q1742.503,342.0469 1742.7218,342.0469 Q1743.0968,342.0469 1743.3312,342.3125 Q1743.5655,342.5625 1743.5655,343.1719 L1743.5655,344.625 Q1743.5655,345.2344 1743.3312,345.5 Q1743.0968,345.7656 1742.7218,345.7656 Q1742.378,345.7656 1742.1749,345.5625 Q1741.9718,345.375 1741.8624,344.8594 Q1741.8155,344.5 1741.628,344.3125 Q1741.2999,343.9375 1740.6905,343.7188 Q1740.0812,343.5 1739.4562,343.5 Q1738.6905,343.5 1738.0499,343.8281 Q1737.4249,344.1563 1736.9249,344.9063 Q1736.4405,345.6563 1736.4405,346.6875 L1736.4405,347.7813 Q1736.4405,349.0156 1737.3312,349.8438 Q1738.2218,350.6563 1739.8155,350.6563 Q1740.753,350.6563 1741.4093,350.4063 Q1741.7999,350.25 1742.2218,349.8125 Q1742.4874,349.5469 1742.628,349.4688 Q1742.7843,349.3906 1742.9874,349.3906 Q1743.3155,349.3906 1743.5655,349.6563 Q1743.8312,349.9063 1743.8312,350.25 Q1743.8312,350.5938 1743.4874,351 Q1742.9874,351.5781 1742.1905,351.9063 Q1741.1124,352.3594 1739.8155,352.3594 Q1738.2999,352.3594 1737.0968,351.7344 Q1736.1124,351.2344 1735.4249,350.1719 Q1734.7374,349.0938 1734.7374,347.8125 L1734.7374,346.6563 Q1734.7374,345.3281 1735.3468,344.1875 Q1735.9718,343.0313 1737.0655,342.4219 Q1738.1593,341.7969 1739.3937,341.7969 Q1740.128,341.7969 1740.7687,341.9688 Q1741.4249,342.125 1741.9718,342.4844 Z " fill="#000000"/><text fill="#000000" font-family="sans-serif" font-size="14" lengthAdjust="spacing" textLength="72.3721" x="1756.8075" y="352.3379">InviteToken</text><line style="stroke:#181818;stroke-width:0.5;" x1="1709" x2="1847.3857" y1="362.6094" y2="362.6094"/><text fill="#000000" font-family="sans-serif" font-size="14" lengthAdjust="spacing" textLength="55.248" x="1714" y="381.1426">id: String</text><text fill="#000000" font-family="sans-serif" font-size="14" lengthAdjust="spacing" textLength="102.7236" x="1714" y="398.752">teacherId: String</text><text fill="#000000" font-family="sans-serif" font-size="14" lengthAdjust="spacing" textLength="78.5996" x="1714" y="416.3613">token: String</text><text fill="#000000" font-family="sans-serif" font-size="14" lengthAdjust="spacing" textLength="79.3721" x="1714" y="433.9707">name: String</text><text fill="#000000" font-family="sans-serif" font-size="14" lengthAdjust="spacing" textLength="85.5928" x="1714" y="451.5801">email: String?</text><text fill="#000000" font-family="sans-serif" font-size="14" lengthAdjust="spacing" textLength="80.1582" x="1714" y="469.1895">grade: String</text><text fill="#000000" font-family="sans-serif" font-size="14" lengthAdjust="spacing" textLength="119.834" x="1714" y="486.7988">usedAt: DateTime?</text><text fill="#000000" font-family="sans-serif" font-size="14" lengthAdjust="spacing" textLength="126.8203" x="1714" y="504.4082">expiresAt: DateTime</text><text fill="#000000" font-family="sans-serif" font-size="14" lengthAdjust="spacing" textLength="128.3857" x="1714" y="522.0176">createdAt: DateTime</text></g><!--class ParentInviteToken--><g class="entity" data-qualified-name="ParentInviteToken" data-source-line="189" id="ent0018"><rect fill="#F1F1F1" height="180.875" rx="2.5" ry="2.5" style="stroke:#181818;stroke-width:0.5;" width="145.6201" x="835" y="694.6094"/><ellipse cx="850" cy="710.6094" fill="#ADD1B2" rx="11" ry="11" style="stroke:#181818;stroke-width:1;"/><path d="M852.7656,706.4844 Q852.9219,706.2656 853.1094,706.1563 Q853.2969,706.0469 853.5156,706.0469 Q853.8906,706.0469 854.125,706.3125 Q854.3594,706.5625 854.3594,707.1719 L854.3594,708.625 Q854.3594,709.2344 854.125,709.5 Q853.8906,709.7656 853.5156,709.7656 Q853.1719,709.7656 852.9688,709.5625 Q852.7656,709.375 852.6563,708.8594 Q852.6094,708.5 852.4219,708.3125 Q852.0938,707.9375 851.4844,707.7188 Q850.875,707.5 850.25,707.5 Q849.4844,707.5 848.8438,707.8281 Q848.2188,708.1563 847.7188,708.9063 Q847.2344,709.6563 847.2344,710.6875 L847.2344,711.7813 Q847.2344,713.0156 848.125,713.8438 Q849.0156,714.6563 850.6094,714.6563 Q851.5469,714.6563 852.2031,714.4063 Q852.5938,714.25 853.0156,713.8125 Q853.2813,713.5469 853.4219,713.4688 Q853.5781,713.3906 853.7813,713.3906 Q854.1094,713.3906 854.3594,713.6563 Q854.625,713.9063 854.625,714.25 Q854.625,714.5938 854.2813,715 Q853.7813,715.5781 852.9844,715.9063 Q851.9063,716.3594 850.6094,716.3594 Q849.0938,716.3594 847.8906,715.7344 Q846.9063,715.2344 846.2188,714.1719 Q845.5313,713.0938 845.5313,711.8125 L845.5313,710.6563 Q845.5313,709.3281 846.1406,708.1875 Q846.7656,707.0313 847.8594,706.4219 Q848.9531,705.7969 850.1875,705.7969 Q850.9219,705.7969 851.5625,705.9688 Q852.2188,706.125 852.7656,706.4844 Z " fill="#000000"/><text fill="#000000" font-family="sans-serif" font-size="14" lengthAdjust="spacing" textLength="113.6201" x="864" y="716.3379">ParentInviteToken</text><line style="stroke:#181818;stroke-width:0.5;" x1="836" x2="979.6201" y1="726.6094" y2="726.6094"/><text fill="#000000" font-family="sans-serif" font-size="14" lengthAdjust="spacing" textLength="55.248" x="841" y="745.1426">id: String</text><text fill="#000000" font-family="sans-serif" font-size="14" lengthAdjust="spacing" textLength="102.7236" x="841" y="762.752">teacherId: String</text><text fill="#000000" font-family="sans-serif" font-size="14" lengthAdjust="spacing" textLength="101.9512" x="841" y="780.3613">studentId: String</text><text fill="#000000" font-family="sans-serif" font-size="14" lengthAdjust="spacing" textLength="78.5996" x="841" y="797.9707">token: String</text><text fill="#000000" font-family="sans-serif" font-size="14" lengthAdjust="spacing" textLength="85.5928" x="841" y="815.5801">email: String?</text><text fill="#000000" font-family="sans-serif" font-size="14" lengthAdjust="spacing" textLength="119.834" x="841" y="833.1895">usedAt: DateTime?</text><text fill="#000000" font-family="sans-serif" font-size="14" lengthAdjust="spacing" textLength="126.8203" x="841" y="850.7988">expiresAt: DateTime</text><text fill="#000000" font-family="sans-serif" font-size="14" lengthAdjust="spacing" textLength="128.3857" x="841" y="868.4082">createdAt: DateTime</text></g><!--class ParentStudent--><g class="entity" data-qualified-name="ParentStudent" data-source-line="200" id="ent0019"><rect fill="#F1F1F1" height="128.0469" rx="2.5" ry="2.5" style="stroke:#181818;stroke-width:0.5;" width="140.3857" x="2048" y="721.1094"/><ellipse cx="2071.4942" cy="737.1094" fill="#ADD1B2" rx="11" ry="11" style="stroke:#181818;stroke-width:1;"/><path d="M2074.2598,732.9844 Q2074.4161,732.7656 2074.6036,732.6563 Q2074.7911,732.5469 2075.0098,732.5469 Q2075.3848,732.5469 2075.6192,732.8125 Q2075.8536,733.0625 2075.8536,733.6719 L2075.8536,735.125 Q2075.8536,735.7344 2075.6192,736 Q2075.3848,736.2656 2075.0098,736.2656 Q2074.6661,736.2656 2074.4629,736.0625 Q2074.2598,735.875 2074.1504,735.3594 Q2074.1036,735 2073.9161,734.8125 Q2073.5879,734.4375 2072.9786,734.2188 Q2072.3692,734 2071.7442,734 Q2070.9786,734 2070.3379,734.3281 Q2069.7129,734.6563 2069.2129,735.4063 Q2068.7286,736.1563 2068.7286,737.1875 L2068.7286,738.2813 Q2068.7286,739.5156 2069.6192,740.3438 Q2070.5098,741.1563 2072.1036,741.1563 Q2073.0411,741.1563 2073.6973,740.9063 Q2074.0879,740.75 2074.5098,740.3125 Q2074.7754,740.0469 2074.9161,739.9688 Q2075.0723,739.8906 2075.2754,739.8906 Q2075.6036,739.8906 2075.8536,740.1563 Q2076.1192,740.4063 2076.1192,740.75 Q2076.1192,741.0938 2075.7754,741.5 Q2075.2754,742.0781 2074.4786,742.4063 Q2073.4004,742.8594 2072.1036,742.8594 Q2070.5879,742.8594 2069.3848,742.2344 Q2068.4004,741.7344 2067.7129,740.6719 Q2067.0254,739.5938 2067.0254,738.3125 L2067.0254,737.1563 Q2067.0254,735.8281 2067.6348,734.6875 Q2068.2598,733.5313 2069.3536,732.9219 Q2070.4473,732.2969 2071.6817,732.2969 Q2072.4161,732.2969 2073.0567,732.4688 Q2073.7129,732.625 2074.2598,732.9844 Z " fill="#000000"/><text fill="#000000" font-family="sans-serif" font-size="14" lengthAdjust="spacing" textLength="89.5098" x="2087.3818" y="742.8379">ParentStudent</text><line style="stroke:#181818;stroke-width:0.5;" x1="2049" x2="2187.3857" y1="753.1094" y2="753.1094"/><text fill="#000000" font-family="sans-serif" font-size="14" lengthAdjust="spacing" textLength="55.248" x="2054" y="771.6426">id: String</text><text fill="#000000" font-family="sans-serif" font-size="14" lengthAdjust="spacing" textLength="95.7236" x="2054" y="789.252">parentId: String</text><text fill="#000000" font-family="sans-serif" font-size="14" lengthAdjust="spacing" textLength="101.9512" x="2054" y="806.8613">studentId: String</text><text fill="#000000" font-family="sans-serif" font-size="14" lengthAdjust="spacing" textLength="102.7236" x="2054" y="824.4707">teacherId: String</text><text fill="#000000" font-family="sans-serif" font-size="14" lengthAdjust="spacing" textLength="128.3857" x="2054" y="842.0801">createdAt: DateTime</text></g><!--class MonthlyPayment--><g class="entity" data-qualified-name="MonthlyPayment" data-source-line="208" id="ent0020"><rect fill="#F1F1F1" height="180.875" rx="2.5" ry="2.5" style="stroke:#181818;stroke-width:0.5;" width="141.1787" x="1158.5" y="694.6094"/><ellipse cx="1175.7096" cy="710.6094" fill="#ADD1B2" rx="11" ry="11" style="stroke:#181818;stroke-width:1;"/><path d="M1178.4752,706.4844 Q1178.6314,706.2656 1178.8189,706.1563 Q1179.0064,706.0469 1179.2252,706.0469 Q1179.6002,706.0469 1179.8346,706.3125 Q1180.0689,706.5625 1180.0689,707.1719 L1180.0689,708.625 Q1180.0689,709.2344 1179.8346,709.5 Q1179.6002,709.7656 1179.2252,709.7656 Q1178.8814,709.7656 1178.6783,709.5625 Q1178.4752,709.375 1178.3658,708.8594 Q1178.3189,708.5 1178.1314,708.3125 Q1177.8033,707.9375 1177.1939,707.7188 Q1176.5846,707.5 1175.9596,707.5 Q1175.1939,707.5 1174.5533,707.8281 Q1173.9283,708.1563 1173.4283,708.9063 Q1172.9439,709.6563 1172.9439,710.6875 L1172.9439,711.7813 Q1172.9439,713.0156 1173.8346,713.8438 Q1174.7252,714.6563 1176.3189,714.6563 Q1177.2564,714.6563 1177.9127,714.4063 Q1178.3033,714.25 1178.7252,713.8125 Q1178.9908,713.5469 1179.1314,713.4688 Q1179.2877,713.3906 1179.4908,713.3906 Q1179.8189,713.3906 1180.0689,713.6563 Q1180.3346,713.9063 1180.3346,714.25 Q1180.3346,714.5938 1179.9908,715 Q1179.4908,715.5781 1178.6939,715.9063 Q1177.6158,716.3594 1176.3189,716.3594 Q1174.8033,716.3594 1173.6002,715.7344 Q1172.6158,715.2344 1171.9283,714.1719 Q1171.2408,713.0938 1171.2408,711.8125 L1171.2408,710.6563 Q1171.2408,709.3281 1171.8502,708.1875 Q1172.4752,707.0313 1173.5689,706.4219 Q1174.6627,705.7969 1175.8971,705.7969 Q1176.6314,705.7969 1177.2721,705.9688 Q1177.9283,706.125 1178.4752,706.4844 Z " fill="#000000"/><text fill="#000000" font-family="sans-serif" font-size="14" lengthAdjust="spacing" textLength="104.2686" x="1190.2006" y="716.3379">MonthlyPayment</text><line style="stroke:#181818;stroke-width:0.5;" x1="1159.5" x2="1298.6787" y1="726.6094" y2="726.6094"/><text fill="#000000" font-family="sans-serif" font-size="14" lengthAdjust="spacing" textLength="55.248" x="1164.5" y="745.1426">id: String</text><text fill="#000000" font-family="sans-serif" font-size="14" lengthAdjust="spacing" textLength="102.7236" x="1164.5" y="762.752">teacherId: String</text><text fill="#000000" font-family="sans-serif" font-size="14" lengthAdjust="spacing" textLength="101.9512" x="1164.5" y="780.3613">studentId: String</text><text fill="#000000" font-family="sans-serif" font-size="14" lengthAdjust="spacing" textLength="50.5791" x="1164.5" y="797.9707">year: Int</text><text fill="#000000" font-family="sans-serif" font-size="14" lengthAdjust="spacing" textLength="62.2549" x="1164.5" y="815.5801">month: Int</text><text fill="#000000" font-family="sans-serif" font-size="14" lengthAdjust="spacing" textLength="129.1787" x="1164.5" y="833.1895">dueDate: DateTime?</text><text fill="#000000" font-family="sans-serif" font-size="14" lengthAdjust="spacing" textLength="115.9443" x="1164.5" y="850.7988">paidAt: DateTime?</text><text fill="#000000" font-family="sans-serif" font-size="14" lengthAdjust="spacing" textLength="128.3857" x="1164.5" y="868.4082">createdAt: DateTime</text></g><!--class LineLinkToken--><g class="entity" data-qualified-name="LineLinkToken" data-source-line="219" id="ent0021"><rect fill="#F1F1F1" height="128.0469" rx="2.5" ry="2.5" style="stroke:#181818;stroke-width:0.5;" width="140.3857" x="2303" y="365.6094"/><ellipse cx="2325.7959" cy="381.6094" fill="#ADD1B2" rx="11" ry="11" style="stroke:#181818;stroke-width:1;"/><path d="M2328.5615,377.4844 Q2328.7178,377.2656 2328.9053,377.1563 Q2329.0928,377.0469 2329.3115,377.0469 Q2329.6865,377.0469 2329.9209,377.3125 Q2330.1553,377.5625 2330.1553,378.1719 L2330.1553,379.625 Q2330.1553,380.2344 2329.9209,380.5 Q2329.6865,380.7656 2329.3115,380.7656 Q2328.9678,380.7656 2328.7646,380.5625 Q2328.5615,380.375 2328.4521,379.8594 Q2328.4053,379.5 2328.2178,379.3125 Q2327.8896,378.9375 2327.2803,378.7188 Q2326.6709,378.5 2326.0459,378.5 Q2325.2803,378.5 2324.6396,378.8281 Q2324.0146,379.1563 2323.5146,379.9063 Q2323.0303,380.6563 2323.0303,381.6875 L2323.0303,382.7813 Q2323.0303,384.0156 2323.9209,384.8438 Q2324.8115,385.6563 2326.4053,385.6563 Q2327.3428,385.6563 2327.999,385.4063 Q2328.3896,385.25 2328.8115,384.8125 Q2329.0771,384.5469 2329.2178,384.4688 Q2329.374,384.3906 2329.5771,384.3906 Q2329.9053,384.3906 2330.1553,384.6563 Q2330.4209,384.9063 2330.4209,385.25 Q2330.4209,385.5938 2330.0771,386 Q2329.5771,386.5781 2328.7803,386.9063 Q2327.7021,387.3594 2326.4053,387.3594 Q2324.8896,387.3594 2323.6865,386.7344 Q2322.7021,386.2344 2322.0146,385.1719 Q2321.3271,384.0938 2321.3271,382.8125 L2321.3271,381.6563 Q2321.3271,380.3281 2321.9365,379.1875 Q2322.5615,378.0313 2323.6553,377.4219 Q2324.749,376.7969 2325.9834,376.7969 Q2326.7178,376.7969 2327.3584,376.9688 Q2328.0146,377.125 2328.5615,377.4844 Z " fill="#000000"/><text fill="#000000" font-family="sans-serif" font-size="14" lengthAdjust="spacing" textLength="91.0615" x="2341.5283" y="387.3379">LineLinkToken</text><line style="stroke:#181818;stroke-width:0.5;" x1="2304" x2="2442.3857" y1="397.6094" y2="397.6094"/><text fill="#000000" font-family="sans-serif" font-size="14" lengthAdjust="spacing" textLength="55.248" x="2309" y="416.1426">id: String</text><text fill="#000000" font-family="sans-serif" font-size="14" lengthAdjust="spacing" textLength="83.2617" x="2309" y="433.752">userId: String</text><text fill="#000000" font-family="sans-serif" font-size="14" lengthAdjust="spacing" textLength="78.5996" x="2309" y="451.3613">token: String</text><text fill="#000000" font-family="sans-serif" font-size="14" lengthAdjust="spacing" textLength="126.8203" x="2309" y="468.9707">expiresAt: DateTime</text><text fill="#000000" font-family="sans-serif" font-size="14" lengthAdjust="spacing" textLength="128.3857" x="2309" y="486.5801">createdAt: DateTime</text></g><!--link User to Student--><g class="link" data-entity-1="ent0007" data-entity-2="ent0008" data-link-type="association" data-source-line="227" id="lnk22"><path codeLine="227" d="M1390.32,156.8994 C1258.79,173.9694 1039.49,211.1394 991,273.6094 C980.29,287.3994 976.06,304.0894 975.72,321.3194" fill="none" id="User-Student" style="stroke:#181818;stroke-width:1;"/><text fill="#000000" font-family="sans-serif" font-size="13" lengthAdjust="spacing" textLength="54.2026" x="992" y="288.1045">teacherId</text><text fill="#000000" font-family="sans-serif" font-size="13" lengthAdjust="spacing" textLength="7.23" x="1375.3499" y="171.9429">1</text><text fill="#000000" font-family="sans-serif" font-size="13" lengthAdjust="spacing" textLength="19.5127" x="953.8164" y="310.6469">0..*</text></g><!--link User to Student--><g class="link" data-entity-1="ent0007" data-entity-2="ent0008" data-link-type="association" data-source-line="228" id="lnk23"><path codeLine="228" d="M1390.43,155.5494 C1301.66,169.0094 1173.29,200.4594 1087,273.6094 C1071.56,286.6894 1058.8,303.5494 1048.36,321.2994" fill="none" id="User-Student-1" style="stroke:#181818;stroke-width:1;"/><text fill="#000000" font-family="sans-serif" font-size="13" lengthAdjust="spacing" textLength="36.1309" x="1088" y="288.1045">userId</text><text fill="#000000" font-family="sans-serif" font-size="13" lengthAdjust="spacing" textLength="7.23" x="1375.1434" y="153.2735">1</text><text fill="#000000" font-family="sans-serif" font-size="13" lengthAdjust="spacing" textLength="21.6836" x="1029.4996" y="310.6255">0..1</text></g><!--link User to InviteToken--><g class="link" data-entity-1="ent0007" data-entity-2="ent0017" data-link-type="association" data-source-line="229" id="lnk24"><path codeLine="229" d="M1591.88,226.7894 C1609.34,241.8894 1627.01,257.8894 1643,273.6094 C1665.01,295.2494 1687.56,319.9694 1707.77,343.2094" fill="none" id="User-InviteToken" style="stroke:#181818;stroke-width:1;"/><text fill="#000000" font-family="sans-serif" font-size="13" lengthAdjust="spacing" textLength="54.2026" x="1660" y="288.1045">teacherId</text><text fill="#000000" font-family="sans-serif" font-size="13" lengthAdjust="spacing" textLength="7.23" x="1599.5513" y="229.7272">1</text><text fill="#000000" font-family="sans-serif" font-size="13" lengthAdjust="spacing" textLength="19.5127" x="1680.5544" y="330.9626">0..*</text></g><!--link User to Subject--><g class="link" data-entity-1="ent0007" data-entity-2="ent0016" data-link-type="association" data-source-line="230" id="lnk25"><path codeLine="230" d="M1591.79,179.0794 C1671.16,208.5794 1781.88,256.9394 1865,321.6094 C1880.95,334.0194 1895.9,349.7994 1908.8,365.4094" fill="none" id="User-Subject" style="stroke:#181818;stroke-width:1;"/><text fill="#000000" font-family="sans-serif" font-size="13" lengthAdjust="spacing" textLength="54.2026" x="1821" y="288.1045">teacherId</text><text fill="#000000" font-family="sans-serif" font-size="13" lengthAdjust="spacing" textLength="7.23" x="1599.4547" y="178.5135">1</text><text fill="#000000" font-family="sans-serif" font-size="13" lengthAdjust="spacing" textLength="19.5127" x="1883.5983" y="354.574">0..*</text></g><!--link User to Homework--><g class="link" data-entity-1="ent0007" data-entity-2="ent0009" data-link-type="association" data-source-line="231" id="lnk26"><path codeLine="231" d="M1390.37,198.7194 C1353.58,219.9994 1312.55,246.0094 1278,273.6094 C1150.05,375.7894 1165.48,453.7094 1141,615.6094 C1118.47,764.5794 1125.62,804.7294 1141,954.6094 C1143.6,979.9594 1147.62,1006.4994 1152.3,1032.4994" fill="none" id="User-Homework" style="stroke:#181818;stroke-width:1;"/><text fill="#000000" font-family="sans-serif" font-size="13" lengthAdjust="spacing" textLength="54.2026" x="1149" y="582.1045">teacherId</text><text fill="#000000" font-family="sans-serif" font-size="13" lengthAdjust="spacing" textLength="7.23" x="1375.4037" y="216.9647">1</text><text fill="#000000" font-family="sans-serif" font-size="13" lengthAdjust="spacing" textLength="19.5127" x="1130.9918" y="1021.5474">0..*</text></g><!--link User to Lesson--><g class="link" data-entity-1="ent0007" data-entity-2="ent0011" data-link-type="association" data-source-line="232" id="lnk27"><path codeLine="232" d="M1476.98,243.8094 C1464.86,345.4594 1454.43,495.2294 1491,537.6094 C1550.59,606.6494 1622.05,511.5594 1694,567.6094 C1710.7,580.6194 1724.33,597.2694 1735.44,615.5594" fill="none" id="User-Lesson" style="stroke:#181818;stroke-width:1;"/><text fill="#000000" font-family="sans-serif" font-size="13" lengthAdjust="spacing" textLength="54.2026" x="1492" y="435.1045">teacherId</text><text fill="#000000" font-family="sans-serif" font-size="13" lengthAdjust="spacing" textLength="7.23" x="1468.6448" y="265.5069">1</text><text fill="#000000" font-family="sans-serif" font-size="13" lengthAdjust="spacing" textLength="19.5127" x="1713.8208" y="605.0091">0..*</text></g><!--link User to GradeRecord--><g class="link" data-entity-1="ent0007" data-entity-2="ent0012" data-link-type="association" data-source-line="233" id="lnk28"><path codeLine="233" d="M1424.28,243.7194 C1410.98,268.1394 1398.97,294.9894 1392,321.6094 C1367.67,414.4794 1349.88,451.3394 1392,537.6094 C1416.73,588.2594 1455.91,572.3094 1492,615.6094 C1498.23,623.0894 1504.2,631.0794 1509.88,639.3694" fill="none" id="User-GradeRecord" style="stroke:#181818;stroke-width:1;"/><text fill="#000000" font-family="sans-serif" font-size="13" lengthAdjust="spacing" textLength="54.2026" x="1393" y="435.1045">teacherId</text><text fill="#000000" font-family="sans-serif" font-size="13" lengthAdjust="spacing" textLength="7.23" x="1411.6908" y="265.7445">1</text><text fill="#000000" font-family="sans-serif" font-size="13" lengthAdjust="spacing" textLength="19.5127" x="1483.2973" y="622.2212">0..*</text></g><!--link User to ExamEvent--><g class="link" data-entity-1="ent0007" data-entity-2="ent0013" data-link-type="association" data-source-line="234" id="lnk29"><path codeLine="234" d="M1390.24,152.4594 C1255.29,165.9394 1013.36,205.6294 845,321.6094 C706.69,416.8894 605.39,589.1694 552.83,694.4394" fill="none" id="User-ExamEvent" style="stroke:#181818;stroke-width:1;"/><text fill="#000000" font-family="sans-serif" font-size="13" lengthAdjust="spacing" textLength="54.2026" x="846" y="435.1045">teacherId</text><text fill="#000000" font-family="sans-serif" font-size="13" lengthAdjust="spacing" textLength="7.23" x="1375.2638" y="149.9379">1</text><text fill="#000000" font-family="sans-serif" font-size="13" lengthAdjust="spacing" textLength="19.5127" x="536.4383" y="683.7831">0..*</text></g><!--link User to StudentMaterial--><g class="link" data-entity-1="ent0007" data-entity-2="ent0015" data-link-type="association" data-source-line="235" id="lnk30"><path codeLine="235" d="M1390.34,196.3694 C1343.35,225.9194 1292.13,267.9994 1266,321.6094 C1223.94,407.9094 1238.59,445.6094 1266,537.6094 C1277.83,577.3094 1296.05,579.8794 1317,615.6094 C1333.52,643.7994 1350.43,675.3794 1364.95,703.5194" fill="none" id="User-StudentMaterial" style="stroke:#181818;stroke-width:1;"/><text fill="#000000" font-family="sans-serif" font-size="13" lengthAdjust="spacing" textLength="54.2026" x="1267" y="435.1045">teacherId</text><text fill="#000000" font-family="sans-serif" font-size="13" lengthAdjust="spacing" textLength="7.23" x="1375.3714" y="197.2098">1</text><text fill="#000000" font-family="sans-serif" font-size="13" lengthAdjust="spacing" textLength="19.5127" x="1341.388" y="692.7594">0..*</text></g><!--link User to MonthlyPayment--><g class="link" data-entity-1="ent0007" data-entity-2="ent0020" data-link-type="association" data-source-line="236" id="lnk31"><path codeLine="236" d="M1543.99,243.8494 C1582.07,329.2494 1616.8,452.3194 1555,537.6094 C1489.69,627.7494 1401.91,543.6394 1317,615.6094 C1292.45,636.4194 1273.84,665.8094 1260.2,694.2394" fill="none" id="User-MonthlyPayment" style="stroke:#181818;stroke-width:1;"/><text fill="#000000" font-family="sans-serif" font-size="13" lengthAdjust="spacing" textLength="54.2026" x="1590" y="435.1045">teacherId</text><text fill="#000000" font-family="sans-serif" font-size="13" lengthAdjust="spacing" textLength="7.23" x="1540.7853" y="265.55">1</text><text fill="#000000" font-family="sans-serif" font-size="13" lengthAdjust="spacing" textLength="19.5127" x="1242.9425" y="683.8748">0..*</text></g><!--link User to LineLinkToken--><g class="link" data-entity-1="ent0007" data-entity-2="ent0021" data-link-type="association" data-source-line="237" id="lnk32"><path codeLine="237" d="M1591.57,154.4394 C1768.92,171.3694 2128.81,212.2494 2238,273.6094 C2276.89,295.4594 2309.99,332.9294 2333.68,365.5494" fill="none" id="User-LineLinkToken" style="stroke:#181818;stroke-width:1;"/><text fill="#000000" font-family="sans-serif" font-size="13" lengthAdjust="spacing" textLength="36.1309" x="2262" y="288.1045">userId</text><text fill="#000000" font-family="sans-serif" font-size="13" lengthAdjust="spacing" textLength="7.23" x="1599.544" y="169.2945">1</text><text fill="#000000" font-family="sans-serif" font-size="13" lengthAdjust="spacing" textLength="21.6836" x="2306.9368" y="354.7302">0..1</text></g><!--link Student to Homework--><g class="link" data-entity-1="ent0008" data-entity-2="ent0009" data-link-type="association" data-source-line="239" id="lnk33"><path codeLine="239" d="M1008.61,537.7994 C1012.17,654.8994 1026.52,846.5894 1079,1002.6094 C1084.42,1018.7094 1091.07,1035.0094 1098.43,1051.0294" fill="none" id="Student-Homework" style="stroke:#181818;stroke-width:1;"/><text fill="#000000" font-family="sans-serif" font-size="13" lengthAdjust="spacing" textLength="7.23" x="1001.4389" y="559.1097">1</text><text fill="#000000" font-family="sans-serif" font-size="13" lengthAdjust="spacing" textLength="19.5127" x="1071.078" y="1035.1459">0..*</text></g><!--link Student to Lesson--><g class="link" data-entity-1="ent0008" data-entity-2="ent0011" data-link-type="association" data-source-line="240" id="lnk34"><path codeLine="240" d="M1097.65,490.1894 C1127.82,507.8794 1162.37,525.6894 1196,537.6094 C1246,555.3394 1622.17,587.2494 1667,615.6094 C1673.17,619.5094 1679.1,623.8694 1684.8,628.5894" fill="none" id="Student-Lesson" style="stroke:#181818;stroke-width:1;"/><text fill="#000000" font-family="sans-serif" font-size="13" lengthAdjust="spacing" textLength="7.23" x="1105.1002" y="491.8847">1</text><text fill="#000000" font-family="sans-serif" font-size="13" lengthAdjust="spacing" textLength="19.5127" x="1657.4973" y="613.4881">0..*</text></g><!--link Student to GradeRecord--><g class="link" data-entity-1="ent0008" data-entity-2="ent0012" data-link-type="association" data-source-line="241" id="lnk35"><path codeLine="241" d="M1063.06,537.8894 C1077.46,556.6894 1094.75,573.9294 1115,585.6094 C1187.81,627.5894 1421.91,569.2394 1492,615.6094 C1499.57,620.6194 1506.53,626.4894 1512.92,632.9894" fill="none" id="Student-GradeRecord" style="stroke:#181818;stroke-width:1;"/><text fill="#000000" font-family="sans-serif" font-size="13" lengthAdjust="spacing" textLength="7.23" x="1059.5472" y="559.2057">1</text><text fill="#000000" font-family="sans-serif" font-size="13" lengthAdjust="spacing" textLength="19.5127" x="1509.9543" y="622.2337">0..*</text></g><!--link Student to ExamEvent--><g class="link" data-entity-1="ent0008" data-entity-2="ent0013" data-link-type="association" data-source-line="242" id="lnk36"><path codeLine="242" d="M918.31,452.6994 C828.46,478.7294 690.83,529.6994 600,615.6094 C576.98,637.3794 558.85,666.5194 545.18,694.4394" fill="none" id="Student-ExamEvent" style="stroke:#181818;stroke-width:1;"/><text fill="#000000" font-family="sans-serif" font-size="13" lengthAdjust="spacing" textLength="7.23" x="903.331" y="451.5024">1</text><text fill="#000000" font-family="sans-serif" font-size="13" lengthAdjust="spacing" textLength="19.5127" x="548.7283" y="683.7831">0..*</text></g><!--link Student to GardenItem--><g class="link" data-entity-1="ent0008" data-entity-2="ent0014" data-link-type="association" data-source-line="243" id="lnk37"><path codeLine="243" d="M918.11,509.5194 C884.62,540.9494 847.4,578.4494 817,615.6094 C792.58,645.4594 769.03,681.1094 750.19,711.9094" fill="none" id="Student-GardenItem" style="stroke:#181818;stroke-width:1;"/><text fill="#000000" font-family="sans-serif" font-size="13" lengthAdjust="spacing" textLength="7.23" x="903.4045" y="512.9802">1</text><text fill="#000000" font-family="sans-serif" font-size="13" lengthAdjust="spacing" textLength="19.5127" x="734.4639" y="701.0666">0..*</text></g><!--link Student to StudentMaterial--><g class="link" data-entity-1="ent0008" data-entity-2="ent0015" data-link-type="association" data-source-line="244" id="lnk38"><path codeLine="244" d="M1036,537.6694 C1045.3,556.1194 1057.65,573.2894 1074,585.6094 C1160.92,651.0794 1227.57,553.6094 1317,615.6094 C1347.11,636.4794 1367.65,670.9294 1381.26,703.2594" fill="none" id="Student-StudentMaterial" style="stroke:#181818;stroke-width:1;"/><text fill="#000000" font-family="sans-serif" font-size="13" lengthAdjust="spacing" textLength="7.23" x="1030.7468" y="559.334">1</text><text fill="#000000" font-family="sans-serif" font-size="13" lengthAdjust="spacing" textLength="19.5127" x="1379.9974" y="692.7561">0..*</text></g><!--link Student to MonthlyPayment--><g class="link" data-entity-1="ent0008" data-entity-2="ent0020" data-link-type="association" data-source-line="245" id="lnk39"><path codeLine="245" d="M1016.42,537.9994 C1020.21,554.4894 1025.54,570.8994 1033,585.6094 C1035.07,589.6894 1103.11,658.2394 1158.45,713.6594" fill="none" id="Student-MonthlyPayment" style="stroke:#181818;stroke-width:1;"/><text fill="#000000" font-family="sans-serif" font-size="13" lengthAdjust="spacing" textLength="7.23" x="1009.7736" y="559.3231">1</text><text fill="#000000" font-family="sans-serif" font-size="13" lengthAdjust="spacing" textLength="19.5127" x="1131.2121" y="702.9858">0..*</text></g><!--link Student to ParentInviteToken--><g class="link" data-entity-1="ent0008" data-entity-2="ent0018" data-link-type="association" data-source-line="246" id="lnk40"><path codeLine="246" d="M954.54,537.9594 C950.63,547.8494 947.03,557.8294 944,567.6094 C931.35,608.3694 922.88,654.8994 917.35,694.3594" fill="none" id="Student-ParentInviteToken" style="stroke:#181818;stroke-width:1;"/><text fill="#000000" font-family="sans-serif" font-size="13" lengthAdjust="spacing" textLength="7.23" x="943.736" y="559.2804">1</text><text fill="#000000" font-family="sans-serif" font-size="13" lengthAdjust="spacing" textLength="19.5127" x="898.3745" y="683.6965">0..*</text></g><!--link Homework to HomeworkEvent--><g class="link" data-entity-1="ent0009" data-entity-2="ent0010" data-link-type="association" data-source-line="248" id="lnk41"><path codeLine="248" d="M1194,1390.0294 C1194,1411.2994 1194,1431.9994 1194,1450.4594" fill="none" id="Homework-HomeworkEvent" style="stroke:#181818;stroke-width:1;"/><text fill="#000000" font-family="sans-serif" font-size="13" lengthAdjust="spacing" textLength="7.23" x="1186.8679" y="1410.8335">1</text><text fill="#000000" font-family="sans-serif" font-size="13" lengthAdjust="spacing" textLength="19.5127" x="1174.0479" y="1439.6218">0..*</text></g><!--link StudentMaterial to Homework--><g class="link" data-entity-1="ent0015" data-entity-2="ent0009" data-link-type="association" data-source-line="249" id="lnk42"><path codeLine="249" d="M1364.82,866.8594 C1341.5,913.7094 1311.17,974.6694 1282.54,1032.1794" fill="none" id="StudentMaterial-Homework" style="stroke:#181818;stroke-width:1;"/><text fill="#000000" font-family="sans-serif" font-size="13" lengthAdjust="spacing" textLength="57.0781" x="1307" y="999.1045">materialId</text><text fill="#000000" font-family="sans-serif" font-size="13" lengthAdjust="spacing" textLength="21.6836" x="1339.3196" y="888.3517">0..1</text><text fill="#000000" font-family="sans-serif" font-size="13" lengthAdjust="spacing" textLength="19.5127" x="1266.8855" y="1021.7965">0..*</text></g><!--link User to ParentStudent--><g class="link" data-entity-1="ent0007" data-entity-2="ent0019" data-link-type="association" data-source-line="251" id="lnk43"><path codeLine="251" d="M1591.77,147.8994 C1716.68,156.5094 1926.88,191.0094 2040,321.6094 C2090.85,380.3094 2109.23,608.3094 2115.29,720.7294" fill="none" id="User-ParentStudent" style="stroke:#181818;stroke-width:1;"/><text fill="#000000" font-family="sans-serif" font-size="13" lengthAdjust="spacing" textLength="47.7026" x="2099" y="435.1045">parentId</text><text fill="#000000" font-family="sans-serif" font-size="13" lengthAdjust="spacing" textLength="7.23" x="1599.4333" y="145.0437">1</text><text fill="#000000" font-family="sans-serif" font-size="13" lengthAdjust="spacing" textLength="19.5127" x="2094.9615" y="710.3246">0..*</text></g><!--link User to ParentStudent--><g class="link" data-entity-1="ent0007" data-entity-2="ent0019" data-link-type="association" data-source-line="253" id="lnk45"><path codeLine="253" d="M1591.79,156.5994 C1761.23,177.4694 2090.98,229.2194 2155,321.6094 C2238.5,442.1094 2184.58,625.0394 2146.42,720.7194" fill="none" id="User-ParentStudent-1" style="stroke:#181818;stroke-width:1;"/><text fill="#000000" font-family="sans-serif" font-size="13" lengthAdjust="spacing" textLength="54.2026" x="2200" y="435.1045">teacherId</text><text fill="#000000" font-family="sans-serif" font-size="13" lengthAdjust="spacing" textLength="7.23" x="1599.4547" y="154.3826">1</text><text fill="#000000" font-family="sans-serif" font-size="13" lengthAdjust="spacing" textLength="19.5127" x="2129.4963" y="710.3135">0..*</text></g><!--link Student to ParentStudent--><g class="link" data-entity-1="ent0008" data-entity-2="ent0019" data-link-type="association" data-source-line="252" id="lnk44"><path codeLine="252" d="M1097.83,493.1594 C1127.73,510.7894 1162.08,527.8194 1196,537.6094 C1339.62,579.0694 1720.78,541.6894 1868,567.6094 C1938.19,579.9694 1965.42,571.0094 2021,615.6094 C2054.96,642.8594 2079.33,685.4294 2095.14,720.9694" fill="none" id="Student-ParentStudent" style="stroke:#181818;stroke-width:1;"/><text fill="#000000" font-family="sans-serif" font-size="13" lengthAdjust="spacing" textLength="7.23" x="1105.0018" y="512.1424">1</text><text fill="#000000" font-family="sans-serif" font-size="13" lengthAdjust="spacing" textLength="19.5127" x="2072.4057" y="710.1409">0..*</text></g><!--link Subject to Homework--><g class="link" data-entity-1="ent0016" data-entity-2="ent0009" data-link-type="association" data-source-line="255" id="lnk46"><path codeLine="255" d="M1954.74,493.7094 C1956.87,617.0694 1954.81,884.2994 1900,954.6094 C1750.83,1145.9494 1445.38,1194.1194 1289.74,1206.1594" fill="none" id="Subject-Homework" style="stroke:#181818;stroke-width:1;stroke-dasharray:7,7;"/><text fill="#000000" font-family="sans-serif" font-size="13" lengthAdjust="spacing" textLength="58.5317" x="1956" y="790.6045">subjectIds</text></g><!--link Subject to Lesson--><g class="link" data-entity-1="ent0016" data-entity-2="ent0011" data-link-type="association" data-source-line="256" id="lnk47"><path codeLine="256" d="M1909.66,493.9294 C1895.1,516.6194 1879.43,542.7394 1867,567.6094 C1859.35,582.9094 1851.96,599.0994 1844.94,615.4594" fill="none" id="Subject-Lesson" style="stroke:#181818;stroke-width:1;stroke-dasharray:7,7;"/><text fill="#000000" font-family="sans-serif" font-size="13" lengthAdjust="spacing" textLength="58.5317" x="1868" y="582.1045">subjectIds</text></g><!--link Subject to GradeRecord--><g class="link" data-entity-1="ent0016" data-entity-2="ent0012" data-link-type="association" data-source-line="257" id="lnk48"><path codeLine="257" d="M1910.02,493.6794 C1896.97,509.5594 1881.63,525.5094 1865,537.6094 C1826.76,565.4294 1702.09,583.9094 1667,615.6094 C1661.01,621.0194 1655.38,626.9294 1650.08,633.2094" fill="none" id="Subject-GradeRecord" style="stroke:#181818;stroke-width:1;stroke-dasharray:7,7;"/><text fill="#000000" font-family="sans-serif" font-size="13" lengthAdjust="spacing" textLength="58.5317" x="1790" y="582.1045">subjectIds</text></g><!--link Subject to StudentMaterial--><g class="link" data-entity-1="ent0016" data-entity-2="ent0015" data-link-type="association" data-source-line="258" id="lnk49"><path codeLine="258" d="M1913.74,493.7794 C1900.3,510.5494 1883.84,526.9394 1865,537.6094 C1786.41,582.1194 1752.34,548.7694 1664,567.6094 C1586.38,584.1694 1553.55,565.5094 1492,615.6094 C1464.3,638.1594 1444.45,671.8594 1430.77,703.2094" fill="none" id="Subject-StudentMaterial" style="stroke:#181818;stroke-width:1;stroke-dasharray:7,7;"/><text fill="#000000" font-family="sans-serif" font-size="13" lengthAdjust="spacing" textLength="58.5317" x="1665" y="582.1045">subjectIds</text></g><?plantuml-src hLVDZjis4BxhAOGz1iWYkUgoIB2RZO7TOB5sJa5HqD9OOYsI3abvxHGzTFVKP-YfG56WfnvoQT77SGlqCJga9KhKpyhUv6IACoHdlldcnvhg7C8bqR3SYl2VF__-xxSVTmy_xHv-sTt_kdlu7Exk_zWz_Bwx_-lVdpy76KqWPA0paQX0BIbV4KbO6ET4gLTQIpelD4nYmQVq4uGlWW1umS9RWKzy7uIX1X9d876bT940rxZ26ypYXrBthM1m9-Hogeakb3s5TzEKGsAE5ND6jRPhibf9iRPB2Tz1R7QhMwv0AS5dszN-NS5poi4i5WkxglHceBJJOY9UuWzi2CEVZmNzP4veOt2bVqaacZtHmDmfBS7SF2zKXZ-BNDnP1usVSci4DFssqY5iBeHv2PMb4ApZzSKQiN1N7-2jHJvyhq3Q4pI9mYc6WQV64KPetlZcX47ZKs9K8XiR6mMbq83cSGEKkNZYDi-CwG3wYl9bSu-aw5yo4pEG36aGXUT8fnbbO8In1FnAcjkruTCz3Rgs5zx3DNMylLIIfEbHQgDp2HmaqLJmA9nOYYMm84Mktuf2vjjRDC8Apch9J98rv1UR5N3L4PuN-zkkAM-BfiNSX6AIgCgA3z-CkLo5kkjpdujbdlXGc9HjV2UWOabNUu_hg2G5d5jVdGsMKNq6CzIGbEH-g9LDmQYLahLHxuG6xq6wMD0OOJ4Ouvv3gtJi3P9aJcAFEX8mpoIecqne4OMl1TAHS4D8i_5Uvfv1LJwqEIPXJU6kkxyeNvm2yADuwULZDr9PAVR20bNkHjrqDaaIQo7V-Id8MmW-QjE-fZsTDacR34aFiRMrlowVfP6gQMLkfLSYxTsyAUOvZPkXTAA-C0mmCklcgkvDqbYmLGuzdFY8z5NPDRvDKl29BO5Hde2S8aH7qUBI59nRYB5GVa7wOizfyK2NRIXo3QalNWDGAJIdneEHpTJRaCGKwmf3eKbU5btLg6PhMXRCDxaWTe-iK_yU19hXgOFfUe5jT21z3aMAFmKbu8bVziQZwffwrzG-isZP_gFME82YJTLojjNYaFPtNPRVhuPKkwwe9_IfihSTPbFh_LZaGXxCb0bV8wGpiOG3gvisgiElUtFFMS-SWCD5frp0PcNwa6VXYDqtTd8zslhUcj3ogEF2LpLvSEhQp-87LB2kLuy-UosuplBj3TcoBoe8Mo2oIYncxdGJNdlMERFUqEIeyevpBPZPTY2OtPcq7RLZ0c9dzfEN9-7pv-79YzFJPoTk6evgG3fgBvjgUulwhcgoyh7hpAjbee-ekRbrHAySKqQqcfrqHBLk96EEjAhfY7gBb2EW-znmq0TLCFh16X3lCHeGDg0Pq7283DtWsjA0GWkf0IqVe06bJX4C0iUKVamyorsmIfXx-LR_FUbD6x-eHQwAFMfnAJlalfeNGPKhfwTD--hssbHmYT0lzZEWNwVBw5hlVm00?></g></svg>