<svg xmlns="http://www.w3.org/2000/svg" xmlns:xlink="http://www.w3.org/1999/xlink" contentStyleType="text/css" data-diagram-type="DESCRIPTION" height="1742px" preserveAspectRatio="none" style="width:1129px;height:1742px;background:#FFFFFF;" version="1.1" viewBox="0 0 1129 1742" width="1129px" zoomAndPan="magnify"><?plantuml 1.2026.6?><defs/><g><g class="title" data-source-line="1"><text fill="#000000" font-family="sans-serif" font-size="14" font-weight="700" lengthAdjust="spacing" textLength="157.0967" x="482.4517" y="24.5332">katekyo &#12518;&#12540;&#12473;&#12465;&#12540;&#12473;&#22259;</text></g><!--cluster katekyo Web ???--><g class="cluster" data-qualified-name="katekyo Web ..." data-source-line="12" id="ent0007"><rect fill="none" height="1007" rx="2.5" ry="2.5" style="stroke:#181818;stroke-width:1;" width="1006" x="109" y="402.3094"/><text fill="#000000" font-family="sans-serif" font-size="14" font-weight="700" lengthAdjust="spacing" textLength="132.7881" x="545.606" y="418.8426">katekyo Web &#12450;&#12503;&#12522;</text></g><!--entity UCInviteStudent--><g class="entity" data-qualified-name="katekyo Web ....UCInviteStudent" data-source-line="13" id="ent0008"><ellipse cx="224.3716" cy="1166.4837" fill="#F1F1F1" rx="68.8716" ry="16.1743" style="stroke:#181818;stroke-width:0.5;"/><text fill="#000000" font-family="sans-serif" font-size="14" lengthAdjust="spacing" textLength="98" x="175.3716" y="1171.7884">&#29983;&#24466;&#12434;&#25307;&#24453;&#12377;&#12427;</text></g><!--entity UCInviteParent--><g class="entity" data-qualified-name="katekyo Web ....UCInviteParent" data-source-line="14" id="ent0009"><ellipse cx="224.7325" cy="668.5559" fill="#F1F1F1" rx="74.2325" ry="17.2465" style="stroke:#181818;stroke-width:0.5;"/><text fill="#000000" font-family="sans-serif" font-size="14" lengthAdjust="spacing" textLength="112" x="168.7325" y="673.8606">&#20445;&#35703;&#32773;&#12434;&#25307;&#24453;&#12377;&#12427;</text></g><!--entity UCCreateHomework--><g class="entity" data-qualified-name="katekyo Web ....UCCreateHomework" data-source-line="15" id="ent0010"><ellipse cx="224.4975" cy="1233.2611" fill="#F1F1F1" rx="52.4975" ry="15.4517" style="stroke:#181818;stroke-width:0.5;"/><text fill="#000000" font-family="sans-serif" font-size="14" lengthAdjust="spacing" textLength="70" x="189.4975" y="1238.5658">&#23487;&#38988;&#12434;&#20986;&#12377;</text></g><!--entity UCSubmitHomework--><g class="entity" data-qualified-name="katekyo Web ....UCSubmitHomework" data-source-line="16" id="ent0011"><ellipse cx="224.3716" cy="527.4837" fill="#F1F1F1" rx="68.8716" ry="16.1743" style="stroke:#181818;stroke-width:0.5;"/><text fill="#000000" font-family="sans-serif" font-size="14" lengthAdjust="spacing" textLength="98" x="175.3716" y="532.7884">&#23487;&#38988;&#12434;&#25552;&#20986;&#12377;&#12427;</text></g><!--entity UCReviewHomework--><g class="entity" data-qualified-name="katekyo Web ....UCReviewHomework" data-source-line="17" id="ent0012"><ellipse cx="657.9595" cy="1374.5013" fill="#F1F1F1" rx="81.4595" ry="18.6919" style="stroke:#181818;stroke-width:0.5;"/><text fill="#000000" font-family="sans-serif" font-size="14" lengthAdjust="spacing" textLength="129.8896" x="593.0147" y="1379.806">&#23487;&#38988;&#12434;&#25215;&#35469;/&#24046;&#12375;&#25147;&#12377;</text></g><!--entity UCBulkApprove--><g class="entity" data-qualified-name="katekyo Web ....UCBulkApprove" data-source-line="18" id="ent0013"><ellipse cx="224.3574" cy="1374.1809" fill="#F1F1F1" rx="79.8574" ry="18.3715" style="stroke:#181818;stroke-width:0.5;"/><text fill="#000000" font-family="sans-serif" font-size="14" lengthAdjust="spacing" textLength="126" x="161.3574" y="1379.4855">&#23487;&#38988;&#12434;&#19968;&#25324;&#25215;&#35469;&#12377;&#12427;</text></g><!--entity UCLesson--><g class="entity" data-qualified-name="katekyo Web ....UCLesson" data-source-line="19" id="ent0014"><ellipse cx="224.4595" cy="1302.5013" fill="#F1F1F1" rx="81.4595" ry="18.6919" style="stroke:#181818;stroke-width:0.5;"/><text fill="#000000" font-family="sans-serif" font-size="14" lengthAdjust="spacing" textLength="129.8896" x="159.5147" y="1307.806">&#25480;&#26989;&#12434;&#30331;&#37682;/&#26356;&#26032;&#12377;&#12427;</text></g><!--entity UCCompleteLesson--><g class="entity" data-qualified-name="katekyo Web ....UCCompleteLesson" data-source-line="20" id="ent0015"><ellipse cx="224.3574" cy="807.1809" fill="#F1F1F1" rx="79.8574" ry="18.3715" style="stroke:#181818;stroke-width:0.5;"/><text fill="#000000" font-family="sans-serif" font-size="14" lengthAdjust="spacing" textLength="126" x="161.3574" y="812.4855">&#25480;&#26989;&#12434;&#23436;&#20102;&#30906;&#23450;&#12377;&#12427;</text></g><!--entity UCBilling--><g class="entity" data-qualified-name="katekyo Web ....UCBilling" data-source-line="21" id="ent0016"><ellipse cx="224.3574" cy="597.1809" fill="#F1F1F1" rx="79.8574" ry="18.3715" style="stroke:#181818;stroke-width:0.5;"/><text fill="#000000" font-family="sans-serif" font-size="14" lengthAdjust="spacing" textLength="126" x="161.3574" y="602.4855">&#26376;&#27425;&#35531;&#27714;&#12434;&#30906;&#35469;&#12377;&#12427;</text></g><!--entity UCPayment--><g class="entity" data-qualified-name="katekyo Web ....UCPayment" data-source-line="22" id="ent0017"><ellipse cx="224.5638" cy="883.1221" fill="#F1F1F1" rx="99.5638" ry="22.3128" style="stroke:#181818;stroke-width:0.5;"/><text fill="#000000" font-family="sans-serif" font-size="14" lengthAdjust="spacing" textLength="171.8896" x="138.619" y="888.4268">&#25903;&#25173;&#12356;&#26399;&#38480;/&#20837;&#37329;&#12434;&#31649;&#29702;&#12377;&#12427;</text></g><!--entity UCCreateGrade--><g class="entity" data-qualified-name="katekyo Web ....UCCreateGrade" data-source-line="23" id="ent0018"><ellipse cx="224.3716" cy="957.4837" fill="#F1F1F1" rx="68.8716" ry="16.1743" style="stroke:#181818;stroke-width:0.5;"/><text fill="#000000" font-family="sans-serif" font-size="14" lengthAdjust="spacing" textLength="98" x="175.3716" y="962.7884">&#25104;&#32318;&#12434;&#30331;&#37682;&#12377;&#12427;</text></g><!--entity UCViewGrades--><g class="entity" data-qualified-name="katekyo Web ....UCViewGrades" data-source-line="24" id="ent0019"><ellipse cx="224.3574" cy="457.1809" fill="#F1F1F1" rx="79.8574" ry="18.3715" style="stroke:#181818;stroke-width:0.5;"/><text fill="#000000" font-family="sans-serif" font-size="14" lengthAdjust="spacing" textLength="126" x="161.3574" y="462.4855">&#25104;&#32318;&#25512;&#31227;&#12434;&#30906;&#35469;&#12377;&#12427;</text></g><!--entity UCViewGarden--><g class="entity" data-qualified-name="katekyo Web ....UCViewGarden" data-source-line="25" id="ent0020"><ellipse cx="1010.3716" cy="454.4837" fill="#F1F1F1" rx="68.8716" ry="16.1743" style="stroke:#181818;stroke-width:0.5;"/><text fill="#000000" font-family="sans-serif" font-size="14" lengthAdjust="spacing" textLength="98" x="961.3716" y="459.7884">&#23398;&#32722;&#12398;&#26862;&#12434;&#35211;&#12427;</text></g><!--entity UCMaterials--><g class="entity" data-qualified-name="katekyo Web ....UCMaterials" data-source-line="26" id="ent0021"><ellipse cx="224.3716" cy="1024.4837" fill="#F1F1F1" rx="68.8716" ry="16.1743" style="stroke:#181818;stroke-width:0.5;"/><text fill="#000000" font-family="sans-serif" font-size="14" lengthAdjust="spacing" textLength="98" x="175.3716" y="1029.7884">&#25945;&#26448;&#12434;&#31649;&#29702;&#12377;&#12427;</text></g><!--entity UCExamEvent--><g class="entity" data-qualified-name="katekyo Web ....UCExamEvent" data-source-line="27" id="ent0022"><ellipse cx="224.6926" cy="1095.3479" fill="#F1F1F1" rx="85.6926" ry="19.5385" style="stroke:#181818;stroke-width:0.5;"/><text fill="#000000" font-family="sans-serif" font-size="14" lengthAdjust="spacing" textLength="140" x="154.6926" y="1100.6526">&#12486;&#12473;&#12488;&#20104;&#23450;&#12434;&#30331;&#37682;&#12377;&#12427;</text></g><!--entity UCLineLink--><g class="entity" data-qualified-name="katekyo Web ....UCLineLink" data-source-line="28" id="ent0023"><ellipse cx="224.5203" cy="737.5134" fill="#F1F1F1" rx="71.5203" ry="16.7041" style="stroke:#181818;stroke-width:0.5;"/><text fill="#000000" font-family="sans-serif" font-size="14" lengthAdjust="spacing" textLength="105.0137" x="172.0135" y="742.8181">LINE &#12392;&#36899;&#25658;&#12377;&#12427;</text></g><!--entity UCMeetLink--><g class="entity" data-qualified-name="katekyo Web ....UCMeetLink" data-source-line="29" id="ent0024"><ellipse cx="1010.6815" cy="707.4457" fill="#F1F1F1" rx="88.6815" ry="20.1363" style="stroke:#181818;stroke-width:0.5;"/><text fill="#000000" font-family="sans-serif" font-size="14" lengthAdjust="spacing" textLength="147.0137" x="937.1747" y="712.7504">Meet &#12522;&#12531;&#12463;&#12434;&#35373;&#23450;&#12377;&#12427;</text></g><!--entity UCMeetReminder--><g class="entity" data-qualified-name="katekyo Web ....UCMeetReminder" data-source-line="30" id="ent0025"><ellipse cx="657.837" cy="1298.2768" fill="#F1F1F1" rx="97.837" ry="21.9674" style="stroke:#181818;stroke-width:0.5;"/><text fill="#000000" font-family="sans-serif" font-size="14" lengthAdjust="spacing" textLength="168" x="573.837" y="1303.5815">&#25480;&#26989;&#21069;&#12522;&#12510;&#12452;&#12531;&#12480;&#12540;&#12434;&#36865;&#12427;</text></g><!--entity UCPhoto--><g class="entity" data-qualified-name="katekyo Web ....UCPhoto" data-source-line="31" id="ent0026"><ellipse cx="657.8574" cy="1048.1809" fill="#F1F1F1" rx="79.8574" ry="18.3715" style="stroke:#181818;stroke-width:0.5;"/><text fill="#000000" font-family="sans-serif" font-size="14" lengthAdjust="spacing" textLength="126" x="594.8574" y="1053.4855">&#23487;&#38988;&#20889;&#30495;&#12434;&#20445;&#23384;&#12377;&#12427;</text></g><!--entity Teacher--><g class="entity" data-qualified-name="Teacher" data-source-line="5" id="ent0001"><ellipse cx="34.0103" cy="866.3094" fill="#F1F1F1" rx="8" ry="8" style="stroke:#181818;stroke-width:0.5;"/><path d="M34.0103,874.3094 L34.0103,901.3094 M21.0103,882.3094 L47.0103,882.3094 M34.0103,901.3094 L21.0103,916.3094 M34.0103,901.3094 L47.0103,916.3094" fill="none" style="stroke:#181818;stroke-width:0.5;"/><text fill="#000000" font-family="sans-serif" font-size="14" lengthAdjust="spacing" textLength="28" x="6" y="932.3426">&#20808;&#29983;</text><text fill="#000000" font-family="sans-serif" font-size="14" lengthAdjust="spacing" textLength="56.0205" x="6" y="949.952">(teacher)</text></g><!--entity Student--><g class="entity" data-qualified-name="Student" data-source-line="6" id="ent0002"><ellipse cx="34.124" cy="488.3094" fill="#F1F1F1" rx="8" ry="8" style="stroke:#181818;stroke-width:0.5;"/><path d="M34.124,496.3094 L34.124,523.3094 M21.124,504.3094 L47.124,504.3094 M34.124,523.3094 L21.124,538.3094 M34.124,523.3094 L47.124,538.3094" fill="none" style="stroke:#181818;stroke-width:0.5;"/><text fill="#000000" font-family="sans-serif" font-size="14" lengthAdjust="spacing" textLength="28" x="6.5" y="554.3426">&#29983;&#24466;</text><text fill="#000000" font-family="sans-serif" font-size="14" lengthAdjust="spacing" textLength="55.248" x="6.5" y="571.952">(student)</text></g><!--entity Parent--><g class="entity" data-qualified-name="Parent" data-source-line="7" id="ent0003"><ellipse cx="34.0103" cy="163.3094" fill="#F1F1F1" rx="8" ry="8" style="stroke:#181818;stroke-width:0.5;"/><path d="M34.0103,171.3094 L34.0103,198.3094 M21.0103,179.3094 L47.0103,179.3094 M34.0103,198.3094 L21.0103,213.3094 M34.0103,198.3094 L47.0103,213.3094" fill="none" style="stroke:#181818;stroke-width:0.5;"/><text fill="#000000" font-family="sans-serif" font-size="14" lengthAdjust="spacing" textLength="42" x="9.5" y="229.3426">&#20445;&#35703;&#32773;</text><text fill="#000000" font-family="sans-serif" font-size="14" lengthAdjust="spacing" textLength="49.0205" x="9.5" y="246.952">(parent)</text></g><!--entity Line--><g class="entity" data-qualified-name="Line" data-source-line="8" id="ent0004"><ellipse cx="1010.5859" cy="1659.8094" fill="#F1F1F1" rx="8" ry="8" style="stroke:#181818;stroke-width:0.5;"/><path d="M1010.5859,1667.8094 L1010.5859,1694.8094 M997.5859,1675.8094 L1023.5859,1675.8094 M1010.5859,1694.8094 L997.5859,1709.8094 M1010.5859,1694.8094 L1023.5859,1709.8094" fill="none" style="stroke:#181818;stroke-width:0.5;"/><text fill="#000000" font-family="sans-serif" font-size="14" lengthAdjust="spacing" textLength="129.1719" x="946" y="1725.8426">LINE Messaging API</text></g><!--entity Qstash--><g class="entity" data-qualified-name="Qstash" data-source-line="9" id="ent0005"><ellipse cx="1010.4688" cy="1546.8094" fill="#F1F1F1" rx="8" ry="8" style="stroke:#181818;stroke-width:0.5;"/><path d="M1010.4688,1554.8094 L1010.4688,1581.8094 M997.4688,1562.8094 L1023.4688,1562.8094 M1010.4688,1581.8094 L997.4688,1596.8094 M1010.4688,1581.8094 L1023.4688,1596.8094" fill="none" style="stroke:#181818;stroke-width:0.5;"/><text fill="#000000" font-family="sans-serif" font-size="14" lengthAdjust="spacing" textLength="101.9375" x="959.5" y="1612.8426">Upstash QStash</text></g><!--entity Storage--><g class="entity" data-qualified-name="Storage" data-source-line="10" id="ent0006"><ellipse cx="1010.4893" cy="1433.8094" fill="#F1F1F1" rx="8" ry="8" style="stroke:#181818;stroke-width:0.5;"/><path d="M1010.4893,1441.8094 L1010.4893,1468.8094 M997.4893,1449.8094 L1023.4893,1449.8094 M1010.4893,1468.8094 L997.4893,1483.8094 M1010.4893,1468.8094 L1023.4893,1483.8094" fill="none" style="stroke:#181818;stroke-width:0.5;"/><text fill="#000000" font-family="sans-serif" font-size="14" lengthAdjust="spacing" textLength="115.9785" x="952.5" y="1499.8426">Supabase Storage</text></g><!--link Teacher to UCInviteStudent--><g class="link" data-entity-1="ent0001" data-entity-2="ent0008" data-link-type="dependency" data-source-line="34" id="lnk27"><path d="M48.2,952.8694 C66.51,1018.4694 97.72,1129.0694 101,1132.3094 C116.54,1147.6694 133.5129,1155.1277 154.4529,1159.8577" fill="none" id="Teacher-to-UCInviteStudent" style="stroke:#181818;stroke-width:1;"/><polygon fill="#181818" points="159.33,1160.9594,151.4325,1155.0747,154.4529,1159.8577,149.6698,1162.8781,159.33,1160.9594" style="stroke:#181818;stroke-width:1;stroke-linejoin:miter;stroke-miterlimit:10;"/></g><!--link Teacher to UCInviteParent--><g class="link" data-entity-1="ent0001" data-entity-2="ent0009" data-link-type="dependency" data-source-line="35" id="lnk28"><path d="M38.1,857.3794 C43.62,811.6394 58.88,743.8794 101,703.3094 C116.05,688.8094 131.841,681.4689 151.881,676.4289" fill="none" id="Teacher-to-UCInviteParent" style="stroke:#181818;stroke-width:1;"/><polygon fill="#181818" points="156.73,675.2094,147.0262,673.5253,151.881,676.4289,148.9774,681.2837,156.73,675.2094" style="stroke:#181818;stroke-width:1;stroke-linejoin:miter;stroke-miterlimit:10;"/></g><!--link Teacher to UCCreateHomework--><g class="link" data-entity-1="ent0001" data-entity-2="ent0010" data-link-type="dependency" data-source-line="36" id="lnk29"><path d="M39.75,952.8194 C48.09,1026.6994 67.69,1164.2994 101,1199.3094 C119.33,1218.5794 142.6071,1226.4858 167.3371,1230.2558" fill="none" id="Teacher-to-UCCreateHomework" style="stroke:#181818;stroke-width:1;"/><polygon fill="#181818" points="172.28,1231.0094,163.9856,1225.6987,167.3371,1230.2558,162.78,1233.6073,172.28,1231.0094" style="stroke:#181818;stroke-width:1;stroke-linejoin:miter;stroke-miterlimit:10;"/></g><!--link Teacher to UCReviewHomework--><g class="link" data-entity-1="ent0001" data-entity-2="ent0012" data-link-type="dependency" data-source-line="37" id="lnk30"><path d="M37.71,953.0094 C45,1073.0694 66.86,1380.3394 101,1410.3094 C252.75,1543.5194 522.1822,1437.649 618.1422,1393.249" fill="none" id="Teacher-to-UCReviewHomework" style="stroke:#181818;stroke-width:1;"/><polygon fill="#181818" points="622.68,1391.1494,612.8323,1391.2984,618.1422,1393.249,616.1916,1398.5589,622.68,1391.1494" style="stroke:#181818;stroke-width:1;stroke-linejoin:miter;stroke-miterlimit:10;"/></g><!--link Teacher to UCBulkApprove--><g class="link" data-entity-1="ent0001" data-entity-2="ent0013" data-link-type="dependency" data-source-line="38" id="lnk31"><path d="M36,953.1894 C39.07,1053.5994 51.47,1281.6194 101,1338.3094 C113.76,1352.9194 127.3008,1360.3712 145.9308,1365.6712" fill="none" id="Teacher-to-UCBulkApprove" style="stroke:#181818;stroke-width:1;"/><polygon fill="#181818" points="150.74,1367.0394,143.178,1360.7294,145.9308,1365.6712,140.989,1368.424,150.74,1367.0394" style="stroke:#181818;stroke-width:1;stroke-linejoin:miter;stroke-miterlimit:10;"/></g><!--link Teacher to UCLesson--><g class="link" data-entity-1="ent0001" data-entity-2="ent0014" data-link-type="dependency" data-source-line="39" id="lnk32"><path d="M37.62,952.8494 C43.37,1040.0494 60.03,1220.7894 101,1266.3094 C113.83,1280.5594 127.1665,1287.9013 145.5765,1293.2213" fill="none" id="Teacher-to-UCLesson" style="stroke:#181818;stroke-width:1;"/><polygon fill="#181818" points="150.38,1294.6094,142.8442,1288.2681,145.5765,1293.2213,140.6233,1295.9536,150.38,1294.6094" style="stroke:#181818;stroke-width:1;stroke-linejoin:miter;stroke-miterlimit:10;"/></g><!--link Teacher to UCCompleteLesson--><g class="link" data-entity-1="ent0001" data-entity-2="ent0015" data-link-type="dependency" data-source-line="40" id="lnk33"><path d="M62.17,874.2894 C73.26,863.1894 86.81,851.4294 101,843.3094 C119.85,832.5194 137.3931,826.0136 157.8231,820.4936" fill="none" id="Teacher-to-UCCompleteLesson" style="stroke:#181818;stroke-width:1;"/><polygon fill="#181818" points="162.65,819.1894,152.9182,817.6754,157.8231,820.4936,155.0049,825.3984,162.65,819.1894" style="stroke:#181818;stroke-width:1;stroke-linejoin:miter;stroke-miterlimit:10;"/></g><!--link Teacher to UCBilling--><g class="link" data-entity-1="ent0001" data-entity-2="ent0016" data-link-type="dependency" data-source-line="41" id="lnk34"><path d="M40.78,857.7194 C50.11,788.6094 70.57,665.2294 101,633.3094 C114.46,619.1894 128.3291,611.8914 147.0491,606.5914" fill="none" id="Teacher-to-UCBilling" style="stroke:#181818;stroke-width:1;"/><polygon fill="#181818" points="151.86,605.2294,142.1107,603.8324,147.0491,606.5914,144.29,611.5298,151.86,605.2294" style="stroke:#181818;stroke-width:1;stroke-linejoin:miter;stroke-miterlimit:10;"/></g><!--link Teacher to UCPayment--><g class="link" data-entity-1="ent0001" data-entity-2="ent0017" data-link-type="dependency" data-source-line="42" id="lnk35"><path d="M62.01,902.1594 C81.45,899.8894 103.8937,897.2691 130.6237,894.1491" fill="none" id="Teacher-to-UCPayment" style="stroke:#181818;stroke-width:1;"/><polygon fill="#181818" points="135.59,893.5694,126.1869,890.6398,130.6237,894.1491,127.1144,898.5858,135.59,893.5694" style="stroke:#181818;stroke-width:1;stroke-linejoin:miter;stroke-miterlimit:10;"/></g><!--link Teacher to UCCreateGrade--><g class="link" data-entity-1="ent0001" data-entity-2="ent0018" data-link-type="dependency" data-source-line="43" id="lnk36"><path d="M62.01,912.7594 C92.65,921.2094 138.26,933.7898 174.62,943.8198" fill="none" id="Teacher-to-UCCreateGrade" style="stroke:#181818;stroke-width:1;"/><polygon fill="#181818" points="179.44,945.1494,171.8277,938.9001,174.62,943.8198,169.7004,946.6121,179.44,945.1494" style="stroke:#181818;stroke-width:1;stroke-linejoin:miter;stroke-miterlimit:10;"/></g><!--link Teacher to UCViewGrades--><g class="link" data-entity-1="ent0001" data-entity-2="ent0019" data-link-type="dependency" data-source-line="44" id="lnk37"><path d="M39.78,857.5394 C50.45,754.8994 77.16,520.3894 101,493.3094 C113.82,478.7494 127.3701,471.3051 146.0001,466.0151" fill="none" id="Teacher-to-UCViewGrades" style="stroke:#181818;stroke-width:1;"/><polygon fill="#181818" points="150.81,464.6494,141.0597,463.2599,146.0001,466.0151,143.2449,470.9556,150.81,464.6494" style="stroke:#181818;stroke-width:1;stroke-linejoin:miter;stroke-miterlimit:10;"/></g><!--link Teacher to UCViewGarden--><g class="link" data-entity-1="ent0001" data-entity-2="ent0020" data-link-type="dependency" data-source-line="45" id="lnk38"><path d="M39.13,857.6694 C50.44,729.6794 82.37,386.8894 101,371.3094 C233.67,260.3894 796.2349,397.826 960.1549,440.996" fill="none" id="Teacher-to-UCViewGarden" style="stroke:#181818;stroke-width:1;"/><polygon fill="#181818" points="964.99,442.2694,957.3055,436.1092,960.1549,440.996,955.2681,443.8454,964.99,442.2694" style="stroke:#181818;stroke-width:1;stroke-linejoin:miter;stroke-miterlimit:10;"/></g><!--link Teacher to UCMaterials--><g class="link" data-entity-1="ent0001" data-entity-2="ent0021" data-link-type="dependency" data-source-line="46" id="lnk39"><path d="M62.01,950.8294 C72.56,965.2694 85.79,980.1094 101,990.3094 C119.97,1003.0294 138.761,1009.8822 160.211,1014.8922" fill="none" id="Teacher-to-UCMaterials" style="stroke:#181818;stroke-width:1;"/><polygon fill="#181818" points="165.08,1016.0294,157.2257,1010.0872,160.211,1014.8922,155.4061,1017.8775,165.08,1016.0294" style="stroke:#181818;stroke-width:1;stroke-linejoin:miter;stroke-miterlimit:10;"/></g><!--link Teacher to UCExamEvent--><g class="link" data-entity-1="ent0001" data-entity-2="ent0022" data-link-type="dependency" data-source-line="47" id="lnk40"><path d="M53.36,952.9394 C69.82,994.6594 92.62,1049.7994 101,1057.3094 C115.51,1070.3194 129.6246,1077.4201 148.2146,1083.0501" fill="none" id="Teacher-to-UCExamEvent" style="stroke:#181818;stroke-width:1;"/><polygon fill="#181818" points="153,1084.4994,145.5458,1078.0624,148.2146,1083.0501,143.227,1085.719,153,1084.4994" style="stroke:#181818;stroke-width:1;stroke-linejoin:miter;stroke-miterlimit:10;"/></g><!--link Teacher to UCLineLink--><g class="link" data-entity-1="ent0001" data-entity-2="ent0023" data-link-type="dependency" data-source-line="48" id="lnk41"><path d="M47.56,857.7994 C57.54,828.8894 74.34,793.3994 101,771.3094 C117.57,757.5794 134.4265,750.5396 154.9665,745.6396" fill="none" id="Teacher-to-UCLineLink" style="stroke:#181818;stroke-width:1;"/><polygon fill="#181818" points="159.83,744.4794,150.1475,742.677,154.9665,745.6396,152.0038,750.4586,159.83,744.4794" style="stroke:#181818;stroke-width:1;stroke-linejoin:miter;stroke-miterlimit:10;"/></g><!--link Teacher to UCMeetLink--><g class="link" data-entity-1="ent0001" data-entity-2="ent0024" data-link-type="dependency" data-source-line="49" id="lnk42"><path d="M39.82,857.4694 C52.06,738.0894 84.58,435.5794 101,421.3094 C268.83,275.4294 687.38,488.3194 892,604.3094 C931.88,626.9194 966.9031,660.909 988.4131,683.889" fill="none" id="Teacher-to-UCMeetLink" style="stroke:#181818;stroke-width:1;"/><polygon fill="#181818" points="991.83,687.5394,988.6,678.2352,988.4131,683.889,982.7594,683.7022,991.83,687.5394" style="stroke:#181818;stroke-width:1;stroke-linejoin:miter;stroke-miterlimit:10;"/></g><!--link Student to UCSubmitHomework--><g class="link" data-entity-1="ent0002" data-entity-2="ent0011" data-link-type="dependency" data-source-line="51" id="lnk43"><path d="M61.61,527.3094 C85.86,527.3094 117.75,527.3094 150.19,527.3094" fill="none" id="Student-to-UCSubmitHomework" style="stroke:#181818;stroke-width:1;"/><polygon fill="#181818" points="155.19,527.3094,146.19,523.3094,150.19,527.3094,146.19,531.3094,155.19,527.3094" style="stroke:#181818;stroke-width:1;stroke-linejoin:miter;stroke-miterlimit:10;"/></g><!--link Student to UCInviteParent--><g class="link" data-entity-1="ent0002" data-entity-2="ent0009" data-link-type="dependency" data-source-line="52" id="lnk44"><path d="M55.04,574.9694 C65.89,595.5794 81.18,618.3694 101,633.3094 C118.22,646.2894 135.241,653.24 155.721,658.39" fill="none" id="Student-to-UCInviteParent" style="stroke:#181818;stroke-width:1;"/><polygon fill="#181818" points="160.57,659.6094,152.8172,653.5353,155.721,658.39,150.8662,661.2938,160.57,659.6094" style="stroke:#181818;stroke-width:1;stroke-linejoin:miter;stroke-miterlimit:10;"/></g><!--link Student to UCViewGrades--><g class="link" data-entity-1="ent0002" data-entity-2="ent0019" data-link-type="dependency" data-source-line="53" id="lnk45"><path d="M61.75,512.0594 C73.55,505.7294 87.72,498.6294 101,493.3094 C122.92,484.5394 142.9826,478.1682 164.5726,472.1682" fill="none" id="Student-to-UCViewGrades" style="stroke:#181818;stroke-width:1;"/><polygon fill="#181818" points="169.39,470.8294,159.6476,469.3853,164.5726,472.1682,161.7897,477.0931,169.39,470.8294" style="stroke:#181818;stroke-width:1;stroke-linejoin:miter;stroke-miterlimit:10;"/></g><!--link Student to UCViewGarden--><g class="link" data-entity-1="ent0002" data-entity-2="ent0020" data-link-type="dependency" data-source-line="54" id="lnk46"><path d="M39.91,479.6594 C47.84,414.7794 66.23,304.7894 101,288.3094 C259.85,213.0394 735.88,207.5394 892,288.3094 C954.56,320.6794 989.2229,398.7245 1002.2529,433.6645" fill="none" id="Student-to-UCViewGarden" style="stroke:#181818;stroke-width:1;"/><polygon fill="#181818" points="1004,438.3494,1004.6031,428.519,1002.2529,433.6645,997.1074,431.3143,1004,438.3494" style="stroke:#181818;stroke-width:1;stroke-linejoin:miter;stroke-miterlimit:10;"/></g><!--link Student to UCLineLink--><g class="link" data-entity-1="ent0002" data-entity-2="ent0023" data-link-type="dependency" data-source-line="55" id="lnk47"><path d="M41.07,575.1094 C48.56,614.5394 65.05,669.2094 101,702.3094 C116.86,716.9194 133.5504,724.3028 154.1604,729.2928" fill="none" id="Student-to-UCLineLink" style="stroke:#181818;stroke-width:1;"/><polygon fill="#181818" points="159.02,730.4694,151.214,724.4639,154.1604,729.2928,149.3315,732.2392,159.02,730.4694" style="stroke:#181818;stroke-width:1;stroke-linejoin:miter;stroke-miterlimit:10;"/></g><!--link Parent to UCViewGrades--><g class="link" data-entity-1="ent0003" data-entity-2="ent0019" data-link-type="dependency" data-source-line="57" id="lnk48"><path d="M58.77,223.0194 C69.76,233.1294 82.64,245.8094 93,258.3094 C144.12,320.0394 190.2496,398.1366 210.7796,434.4566" fill="none" id="Parent-to-UCViewGrades" style="stroke:#181818;stroke-width:1;"/><polygon fill="#181818" points="213.24,438.8094,212.2935,429.0061,210.7796,434.4566,205.3291,432.9428,213.24,438.8094" style="stroke:#181818;stroke-width:1;stroke-linejoin:miter;stroke-miterlimit:10;"/></g><!--link Parent to UCViewGarden--><g class="link" data-entity-1="ent0003" data-entity-2="ent0020" data-link-type="dependency" data-source-line="58" id="lnk49"><path d="M58.61,194.9794 C167.27,162.8394 625.2,44.6094 892,246.3094 C959.33,297.2094 992.479,393.8139 1003.819,433.2739" fill="none" id="Parent-to-UCViewGarden" style="stroke:#181818;stroke-width:1;"/><polygon fill="#181818" points="1005.2,438.0794,1006.5586,428.3247,1003.819,433.2739,998.8698,430.5343,1005.2,438.0794" style="stroke:#181818;stroke-width:1;stroke-linejoin:miter;stroke-miterlimit:10;"/></g><!--link Parent to UCBilling--><g class="link" data-entity-1="ent0003" data-entity-2="ent0016" data-link-type="dependency" data-source-line="59" id="lnk50"><path d="M37.75,250.1094 C43.69,336.7894 60.6,515.1494 101,560.3094 C114.18,575.0494 128.203,582.6338 147.143,588.0538" fill="none" id="Parent-to-UCBilling" style="stroke:#181818;stroke-width:1;"/><polygon fill="#181818" points="151.95,589.4294,144.3978,583.1076,147.143,588.0538,142.1968,590.7989,151.95,589.4294" style="stroke:#181818;stroke-width:1;stroke-linejoin:miter;stroke-miterlimit:10;"/></g><!--link UCSubmitHomework to UCPhoto--><g class="link" data-entity-1="ent0011" data-entity-2="ent0026" data-link-type="dependency" data-source-line="61" id="lnk51"><path d="M276.15,538.0494 C292.53,543.2094 310.05,550.6694 324,561.3094 C502.74,697.6694 617.8605,953.6025 647.6005,1025.1325" fill="none" id="UCSubmitHomework-to-UCPhoto" style="stroke:#181818;stroke-width:1;stroke-dasharray:7,7;"/><polygon fill="#181818" points="649.52,1029.7494,649.7583,1019.9034,647.6005,1025.1325,642.3713,1022.9747,649.52,1029.7494" style="stroke:#181818;stroke-width:1;stroke-linejoin:miter;stroke-miterlimit:10;"/><text fill="#000000" font-family="sans-serif" font-size="13" lengthAdjust="spacing" textLength="55.6563" x="414.5" y="588.8045">&#171;include&#187;</text></g><!--link UCReviewHomework to UCViewGarden--><g class="link" data-entity-1="ent0012" data-entity-2="ent0020" data-link-type="dependency" data-source-line="62" id="lnk52"><path d="M721.1,1362.4294 C734.58,1356.9594 747.37,1348.9794 756,1337.3094 C815.19,1257.2594 759.41,986.2494 786,890.3094 C834.96,713.6594 957.0178,529.566 995.3078,474.436" fill="none" id="UCReviewHomework-to-UCViewGarden" style="stroke:#181818;stroke-width:1;stroke-dasharray:7,7;"/><polygon fill="#181818" points="998.16,470.3294,989.7406,475.4396,995.3078,474.436,996.3113,480.0032,998.16,470.3294" style="stroke:#181818;stroke-width:1;stroke-linejoin:miter;stroke-miterlimit:10;"/><text fill="#000000" font-family="sans-serif" font-size="13" lengthAdjust="spacing" textLength="55.6563" x="811.1719" y="626.8045">&#171;include&#187;</text><text fill="#000000" font-family="sans-serif" font-size="13" lengthAdjust="spacing" textLength="104" x="787" y="643.1561">&#25215;&#35469;&#26178;&#12395;&#26893;&#29289;&#20184;&#19982;</text></g><!--link UCBulkApprove to UCReviewHomework--><g class="link" data-entity-1="ent0013" data-entity-2="ent0012" data-link-type="dependency" data-source-line="63" id="lnk53"><path d="M304.64,1374.3094 C381.77,1374.3094 493.46,1374.3094 571.16,1374.3094" fill="none" id="UCBulkApprove-to-UCReviewHomework" style="stroke:#181818;stroke-width:1;stroke-dasharray:7,7;"/><polygon fill="#181818" points="576.16,1374.3094,567.16,1370.3094,571.16,1374.3094,567.16,1378.3094,576.16,1374.3094" style="stroke:#181818;stroke-width:1;stroke-linejoin:miter;stroke-miterlimit:10;"/><text fill="#000000" font-family="sans-serif" font-size="13" lengthAdjust="spacing" textLength="55.6563" x="414.5" y="1370.8045">&#171;include&#187;</text></g><!--link UCLesson to UCMeetReminder--><g class="link" data-entity-1="ent0014" data-entity-2="ent0025" data-link-type="dependency" data-source-line="64" id="lnk54"><path d="M306.16,1301.5594 C377.99,1300.8994 478.2702,1299.9658 554.7402,1299.2558" fill="none" id="UCLesson-to-UCMeetReminder" style="stroke:#181818;stroke-width:1;stroke-dasharray:7,7;"/><polygon fill="#181818" points="559.74,1299.2094,550.7033,1295.2931,554.7402,1299.2558,550.7775,1303.2928,559.74,1299.2094" style="stroke:#181818;stroke-width:1;stroke-linejoin:miter;stroke-miterlimit:10;"/><text fill="#000000" font-family="sans-serif" font-size="13" lengthAdjust="spacing" textLength="53.4917" x="415.3186" y="1280.8045">&#171;extend&#187;</text><text fill="#000000" font-family="sans-serif" font-size="13" lengthAdjust="spacing" textLength="174.1289" x="355" y="1297.1561">online + Meet&#35373;&#23450; + LINE&#36899;&#25658;</text></g><!--link UCMeetReminder to UCMeetLink--><g class="link" data-entity-1="ent0025" data-entity-2="ent0024" data-link-type="dependency" data-source-line="65" id="lnk55"><path d="M672.1,1276.2194 C727.78,1182.3394 941.7897,821.48 995.0597,731.65" fill="none" id="UCMeetReminder-to-UCMeetLink" style="stroke:#181818;stroke-width:1;stroke-dasharray:7,7;"/><polygon fill="#181818" points="997.61,727.3494,989.5789,733.0503,995.0597,731.65,996.4599,737.1309,997.61,727.3494" style="stroke:#181818;stroke-width:1;stroke-linejoin:miter;stroke-miterlimit:10;"/><text fill="#000000" font-family="sans-serif" font-size="13" lengthAdjust="spacing" textLength="55.6563" x="811.5" y="912.8045">&#171;include&#187;</text></g><!--link UCLineLink to Line--><g class="link" data-entity-1="ent0023" data-entity-2="ent0004" data-link-type="dependency" data-source-line="67" id="lnk56"><path d="M285.84,745.8594 C300.55,750.8894 314.72,758.8294 324,771.3094 C373.11,837.3394 302.75,1446.9294 354,1511.3094 C499.39,1693.9294 806.6552,1701.407 940.9552,1695.287" fill="none" id="UCLineLink-to-Line" style="stroke:#181818;stroke-width:1;"/><polygon fill="#181818" points="945.95,1695.0594,936.7772,1691.4732,940.9552,1695.287,937.1414,1699.4649,945.95,1695.0594" style="stroke:#181818;stroke-width:1;stroke-linejoin:miter;stroke-miterlimit:10;"/></g><!--link UCReviewHomework to Line--><g class="link" data-entity-1="ent0012" data-entity-2="ent0004" data-link-type="dependency" data-source-line="68" id="lnk57"><path d="M694.5,1390.9694 C719.78,1402.5794 754.68,1418.1094 786,1430.3094 C832.36,1448.3594 859.57,1428.5794 892,1466.3094 C941.44,1523.8294 879.86,1571.2494 922,1634.3094 C928.21,1643.6094 932.5722,1648.66 941.6322,1655.56" fill="none" id="UCReviewHomework-to-Line" style="stroke:#181818;stroke-width:1;"/><polygon fill="#181818" points="945.61,1658.5894,940.8736,1649.9542,941.6322,1655.56,936.0265,1656.3186,945.61,1658.5894" style="stroke:#181818;stroke-width:1;stroke-linejoin:miter;stroke-miterlimit:10;"/><text fill="#000000" font-family="sans-serif" font-size="13" lengthAdjust="spacing" textLength="26" x="826" y="1426.8045">&#36890;&#30693;</text></g><!--link UCSubmitHomework to Line--><g class="link" data-entity-1="ent0011" data-entity-2="ent0004" data-link-type="dependency" data-source-line="69" id="lnk58"><path d="M284.33,535.3194 C299.59,540.3194 314.42,548.3694 324,561.3094 C378.33,634.6694 303.67,1306.1594 354,1382.3094 C424.37,1488.7794 790.5728,1618.4996 941.1428,1668.2896" fill="none" id="UCSubmitHomework-to-Line" style="stroke:#181818;stroke-width:1;"/><polygon fill="#181818" points="945.89,1669.8594,938.6009,1663.236,941.1428,1668.2896,936.0892,1670.8315,945.89,1669.8594" style="stroke:#181818;stroke-width:1;stroke-linejoin:miter;stroke-miterlimit:10;"/><text fill="#000000" font-family="sans-serif" font-size="13" lengthAdjust="spacing" textLength="26" x="645" y="1517.8045">&#36890;&#30693;</text></g><!--link UCMeetReminder to Line--><g class="link" data-entity-1="ent0025" data-entity-2="ent0004" data-link-type="dependency" data-source-line="70" id="lnk59"><path d="M712.37,1316.7094 C726.99,1322.7094 742.51,1329.9894 756,1338.3094 C771.02,1347.5694 770.99,1355.0294 786,1364.3094 C829.39,1391.1394 860.94,1367.8494 892,1408.3094 C953.7,1488.6894 867.6,1548.8294 922,1634.3094 C928.1,1643.8994 932.5224,1649.1297 941.7124,1656.1297" fill="none" id="UCMeetReminder-to-Line" style="stroke:#181818;stroke-width:1;"/><polygon fill="#181818" points="945.69,1659.1594,940.9542,1650.5239,941.7124,1656.1297,936.1066,1656.888,945.69,1659.1594" style="stroke:#181818;stroke-width:1;stroke-linejoin:miter;stroke-miterlimit:10;"/></g><!--link UCMeetReminder to Qstash--><g class="link" data-entity-1="ent0025" data-entity-2="ent0005" data-link-type="dependency" data-source-line="71" id="lnk60"><path d="M735.11,1312.0194 C794.64,1324.2894 870.76,1343.9294 892,1367.3094 C938.9,1418.9094 882.8,1463.6394 922,1521.3094 C931.33,1535.0294 940.9861,1543.5181 954.9961,1552.0981" fill="none" id="UCMeetReminder-to-Qstash" style="stroke:#181818;stroke-width:1;"/><polygon fill="#181818" points="959.26,1554.7094,953.674,1546.5979,954.9961,1552.0981,949.4959,1553.4202,959.26,1554.7094" style="stroke:#181818;stroke-width:1;stroke-linejoin:miter;stroke-miterlimit:10;"/></g><!--link UCPhoto to Storage--><g class="link" data-entity-1="ent0026" data-entity-2="ent0006" data-link-type="dependency" data-source-line="72" id="lnk61"><path d="M678.23,1066.4094 C721.77,1108.3294 829.02,1216.8694 892,1326.3094 C911.56,1360.3094 897.39,1378.7694 922,1409.3094 C930.33,1419.6494 937.0095,1425.8213 948.1895,1433.3313" fill="none" id="UCPhoto-to-Storage" style="stroke:#181818;stroke-width:1;"/><polygon fill="#181818" points="952.34,1436.1194,947.0995,1427.7805,948.1895,1433.3313,942.6386,1434.4213,952.34,1436.1194" style="stroke:#181818;stroke-width:1;stroke-linejoin:miter;stroke-miterlimit:10;"/></g><?plantuml-src VLPRJzj857wVNp7YQLUhblSA8NKHsY91HPjjzwKlGp8DLXmxiYUqQ5KfSHOQ5A1Pr6u9bo9eeImqwLKg3IloOoOU9_zYPtn9CcEBXoZsdEyxbpdVEJBHY8vX3X6SMpOXhPpGod_K-K6Tpy63k_iLwFWnWSI4bfPT932ZMJXDDDC0Taup2iX2ULX0wHpAuXHPviw46HbP7GE0qiIqu9YxKlLU7ZmoVY8OfHUnzVCOH3RyFNY9G1pXNcrna4sA6MoG09GANY9GjxFVQtxlbLOuZeSUmERzvmWrEtDt6ivXsqPPpSZ2s_CpFcXMCt04UL2m2R8NuRsK-FFDz_oJ290g5j02iZ7FmBHuRM4s_ZC0WnhXM7HtV-05I9qZMdbDAsTZy4y0OT76QU4Yh8qwMwoswrwjq7A3EZNVuuEf6MD98pYgSuGqgFKwNbZu2CrjTVg7wvpZFczpGeYUiZ3FyuwPnqzCAvU8Po_g0MKO8rLSo6laUjPQftUsCUv-Rz7oQrQz78QyZvSq_EHQSlUYn6eV0XTIu5-BUkvseM2PItYKo3QhxBZ9YLxZih_-PPpjVcF_V9AOixpjN9j99BUrtcslUaTjjxKZSQRCV47712Tmzwhims7llCO-EoBiKJkMgQRhN6GIwUL7jlQAblzYUmVzHdtSNJdkF_zRq5k7NdrLei-ZvRpIG5QjUnTNWoBbJFqs_cQX38vJsEQfz_uoESs7l1K-pPOQqJpnEbkqt69lMvpNEwaf36HnLKgHNZNOVZsvbZcUcgKXNGf1AwjYdrIgtNPLt7jYMTDFKNvwIRa7Vuff-RHVUilgiYx59FEV9AevZ0bVO6UqyfKw7qKrfqsrqGAZyW9vk6iRFlSDTTu93vMIl_-s-gMoJB-FyvgHuMihfcTtjU7j7GXLT_RTvhRSvaMJcE0P0E7IWpTkJCPcFyaMphTiKePPDYfZ9nj7vqgsXDfN0ic3eVWAbI-VHe9EoZZGhMmP4MQ28T2VR1ZAJ3uVYaYfB1ABuYRI0WZlFpnNTfvib9eYcqOAIJ04XSY6GM8WS1Xt53yF_4ZdKH-0cZkyUNCoqXwy1IScD2EjymGc9u4gan0w327Z7nd1ZcODXvRFsRiDR-tVxkLszs8JI9eAtIY-rT21caBiw4pvIFoKO2CZOfe6hml3Nw301DFCNyHQ25O2KDX3X-9MbR1WUD_-lVaV0x5K8midzqixti5n_5AJ858Q8zvZv-4tHjGKSHH-K_mF?></g></svg>